<mxfile host="app.diagrams.net" agent="Mozilla/5.0 (Windows NT 10.0; Win64; x64) AppleWebKit/537.36 (KHTML, like Gecko) Chrome/132.0.0.0 Safari/537.36" version="26.0.14">
  <diagram name="Page-1" id="4pXiPTnU9EY6Z8xyGQje">
    <mxGraphModel grid="0" page="1" gridSize="10" guides="1" tooltips="1" connect="1" arrows="1" fold="1" pageScale="1" pageWidth="1169" pageHeight="827" math="0" shadow="0">
      <root>
        <mxCell id="0" />
        <mxCell id="1" parent="0" />
        <mxCell id="0As1--4HDR7N-gtueCWr-4" value="vg1p-apps-pricingkf-prd01-52.PX_A3D_DATA.dt_competitor_sale_price_day" style="swimlane;fontStyle=0;childLayout=stackLayout;horizontal=1;startSize=30;horizontalStack=0;resizeParent=1;resizeParentMax=0;resizeLast=0;collapsible=1;marginBottom=0;whiteSpace=wrap;html=1;fillColor=#e1d5e7;strokeColor=#9673a6;" vertex="1" parent="1">
          <mxGeometry x="686" y="37" width="436" height="420" as="geometry" />
        </mxCell>
        <mxCell id="7NsR9cNIBfdw0ESPyUhh-1" value="dayDate&amp;nbsp;&lt;font style=&quot;color: rgb(223, 24, 17);&quot;&gt;[survey date]&lt;/font&gt; &lt;font style=&quot;color: light-dark(rgb(103, 171, 159), rgb(58, 117, 107));&quot;&gt;{ex:&amp;nbsp;&lt;span style=&quot;background-color: rgb(255, 255, 255);&quot;&gt;&lt;font style=&quot;&quot; face=&quot;Roboto, sans-serif&quot;&gt;&lt;span style=&quot;white-space: pre;&quot;&gt;2024-12-07&lt;/span&gt;&lt;/font&gt;&lt;font style=&quot;&quot; face=&quot;Roboto, sans-serif&quot;&gt;&lt;span style=&quot;white-space: pre;&quot;&gt;}&lt;/span&gt;&lt;/font&gt;&lt;/span&gt;&lt;/font&gt;" style="text;strokeColor=none;fillColor=none;align=left;verticalAlign=middle;spacingLeft=4;spacingRight=4;overflow=hidden;points=[[0,0.5],[1,0.5]];portConstraint=eastwest;rotatable=0;whiteSpace=wrap;html=1;" vertex="1" parent="0As1--4HDR7N-gtueCWr-4">
          <mxGeometry y="30" width="436" height="30" as="geometry" />
        </mxCell>
        <mxCell id="7NsR9cNIBfdw0ESPyUhh-2" value="sourceFileName&amp;nbsp;&lt;font style=&quot;color: rgb(223, 24, 17);&quot;&gt;[fichier source]&lt;/font&gt; &lt;font style=&quot;color: rgb(103, 171, 159);&quot;&gt;&lt;font style=&quot;&quot;&gt;{ex:&amp;nbsp;&lt;/font&gt;&lt;span style=&quot;background-color: rgb(255, 255, 255);&quot;&gt;&lt;font style=&quot;&quot; face=&quot;Roboto, sans-serif&quot;&gt;&lt;font style=&quot;&quot;&gt;&lt;span style=&quot;white-space: pre;&quot;&gt;010101F_IMPORT_SURVEY_A3D.20241208043127_20241208035556082.DEL&lt;/span&gt;&lt;/font&gt;&lt;font style=&quot;&quot;&gt;&lt;span style=&quot;white-space: pre;&quot;&gt;}&lt;/span&gt;&lt;/font&gt;&lt;/font&gt;&lt;/span&gt;&lt;/font&gt;" style="text;strokeColor=none;fillColor=none;align=left;verticalAlign=middle;spacingLeft=4;spacingRight=4;overflow=hidden;points=[[0,0.5],[1,0.5]];portConstraint=eastwest;rotatable=0;whiteSpace=wrap;html=1;" vertex="1" parent="0As1--4HDR7N-gtueCWr-4">
          <mxGeometry y="60" width="436" height="30" as="geometry" />
        </mxCell>
        <mxCell id="7NsR9cNIBfdw0ESPyUhh-3" value="storeCompetitorKey&amp;nbsp;&lt;font style=&quot;color: rgb(223, 24, 17);&quot;&gt;[survey date]&lt;/font&gt; &lt;font style=&quot;color: light-dark(rgb(103, 171, 159), rgb(58, 117, 107));&quot;&gt;{ex:&amp;nbsp;&lt;span style=&quot;background-color: rgb(255, 255, 255);&quot;&gt;&lt;font style=&quot;&quot; face=&quot;Roboto, sans-serif&quot;&gt;&lt;span style=&quot;white-space: pre;&quot;&gt;2024-12-07&lt;/span&gt;&lt;/font&gt;&lt;font style=&quot;&quot; face=&quot;Roboto, sans-serif&quot;&gt;&lt;span style=&quot;white-space: pre;&quot;&gt;}&lt;/span&gt;&lt;/font&gt;&lt;/span&gt;&lt;/font&gt;" style="text;strokeColor=none;fillColor=none;align=left;verticalAlign=middle;spacingLeft=4;spacingRight=4;overflow=hidden;points=[[0,0.5],[1,0.5]];portConstraint=eastwest;rotatable=0;whiteSpace=wrap;html=1;" vertex="1" parent="0As1--4HDR7N-gtueCWr-4">
          <mxGeometry y="90" width="436" height="30" as="geometry" />
        </mxCell>
        <mxCell id="7NsR9cNIBfdw0ESPyUhh-4" value="barcode&amp;nbsp;&lt;font style=&quot;color: rgb(223, 24, 17);&quot;&gt;[EAN]&lt;/font&gt; &lt;font style=&quot;color: light-dark(rgb(103, 171, 159), rgb(58, 117, 107));&quot;&gt;{ex:&amp;nbsp;5410673005212&lt;span style=&quot;background-color: rgb(255, 255, 255);&quot;&gt;&lt;font style=&quot;&quot; face=&quot;Roboto, sans-serif&quot;&gt;&lt;span style=&quot;white-space: pre;&quot;&gt;}&lt;/span&gt;&lt;/font&gt;&lt;/span&gt;&lt;/font&gt;" style="text;strokeColor=none;fillColor=none;align=left;verticalAlign=middle;spacingLeft=4;spacingRight=4;overflow=hidden;points=[[0,0.5],[1,0.5]];portConstraint=eastwest;rotatable=0;whiteSpace=wrap;html=1;" vertex="1" parent="0As1--4HDR7N-gtueCWr-4">
          <mxGeometry y="120" width="436" height="30" as="geometry" />
        </mxCell>
        <mxCell id="7NsR9cNIBfdw0ESPyUhh-5" value="salePriceWithTax&amp;nbsp;&lt;font style=&quot;color: rgb(223, 24, 17);&quot;&gt;[prix Vente TTC]&lt;/font&gt; &lt;font style=&quot;color: light-dark(rgb(103, 171, 159), rgb(58, 117, 107));&quot;&gt;{ex:&amp;nbsp;4.45&lt;span style=&quot;background-color: rgb(255, 255, 255);&quot;&gt;&lt;font style=&quot;&quot; face=&quot;Roboto, sans-serif&quot;&gt;&lt;span style=&quot;white-space: pre;&quot;&gt;}&lt;/span&gt;&lt;/font&gt;&lt;/span&gt;&lt;/font&gt;" style="text;strokeColor=none;fillColor=none;align=left;verticalAlign=middle;spacingLeft=4;spacingRight=4;overflow=hidden;points=[[0,0.5],[1,0.5]];portConstraint=eastwest;rotatable=0;whiteSpace=wrap;html=1;" vertex="1" parent="0As1--4HDR7N-gtueCWr-4">
          <mxGeometry y="150" width="436" height="30" as="geometry" />
        </mxCell>
        <mxCell id="7NsR9cNIBfdw0ESPyUhh-6" value="priceTypeName&amp;nbsp;&lt;font style=&quot;color: rgb(223, 24, 17);&quot;&gt;[description disponibilité]&lt;/font&gt; &lt;font style=&quot;color: light-dark(rgb(103, 171, 159), rgb(58, 117, 107));&quot;&gt;{ex:&amp;nbsp;Permanent&lt;span style=&quot;background-color: rgb(255, 255, 255);&quot;&gt;&lt;font style=&quot;&quot; face=&quot;Roboto, sans-serif&quot;&gt;&lt;span style=&quot;white-space: pre;&quot;&gt;}&lt;/span&gt;&lt;/font&gt;&lt;/span&gt;&lt;/font&gt;" style="text;strokeColor=none;fillColor=none;align=left;verticalAlign=middle;spacingLeft=4;spacingRight=4;overflow=hidden;points=[[0,0.5],[1,0.5]];portConstraint=eastwest;rotatable=0;whiteSpace=wrap;html=1;" vertex="1" parent="0As1--4HDR7N-gtueCWr-4">
          <mxGeometry y="180" width="436" height="30" as="geometry" />
        </mxCell>
        <mxCell id="7NsR9cNIBfdw0ESPyUhh-7" value="itemName&amp;nbsp;&lt;font style=&quot;color: rgb(223, 24, 17);&quot;&gt;[description produit]&lt;/font&gt; &lt;font style=&quot;&quot;&gt;&lt;font style=&quot;color: rgb(103, 171, 159);&quot;&gt;&lt;font&gt;{ex:&amp;nbsp;&lt;/font&gt;&lt;span style=&quot;background-color: light-dark(rgb(255, 255, 255), rgb(18, 18, 18));&quot;&gt;&lt;font&gt;Legging fille noir 7-8 ans TEX&lt;/font&gt;&lt;/span&gt;&lt;/font&gt;&lt;span style=&quot;color: light-dark(rgb(103, 171, 159), rgb(58, 117, 107)); background-color: rgb(255, 255, 255);&quot;&gt;&lt;font style=&quot;&quot; face=&quot;Roboto, sans-serif&quot;&gt;&lt;span style=&quot;white-space: pre;&quot;&gt;}&lt;/span&gt;&lt;/font&gt;&lt;/span&gt;&lt;/font&gt;" style="text;strokeColor=none;fillColor=none;align=left;verticalAlign=middle;spacingLeft=4;spacingRight=4;overflow=hidden;points=[[0,0.5],[1,0.5]];portConstraint=eastwest;rotatable=0;whiteSpace=wrap;html=1;" vertex="1" parent="0As1--4HDR7N-gtueCWr-4">
          <mxGeometry y="210" width="436" height="30" as="geometry" />
        </mxCell>
        <mxCell id="7NsR9cNIBfdw0ESPyUhh-8" value="brandTypeName&amp;nbsp;&lt;font style=&quot;color: rgb(223, 24, 17);&quot;&gt;[type marque]&lt;/font&gt; &lt;font style=&quot;color: light-dark(rgb(103, 171, 159), rgb(58, 117, 107));&quot;&gt;{ex:&amp;nbsp;Marque distributeur&lt;span style=&quot;background-color: rgb(255, 255, 255);&quot;&gt;&lt;font style=&quot;&quot; face=&quot;Roboto, sans-serif&quot;&gt;&lt;span style=&quot;white-space: pre;&quot;&gt;}&lt;/span&gt;&lt;/font&gt;&lt;/span&gt;&lt;/font&gt;" style="text;strokeColor=none;fillColor=none;align=left;verticalAlign=middle;spacingLeft=4;spacingRight=4;overflow=hidden;points=[[0,0.5],[1,0.5]];portConstraint=eastwest;rotatable=0;whiteSpace=wrap;html=1;" vertex="1" parent="0As1--4HDR7N-gtueCWr-4">
          <mxGeometry y="240" width="436" height="30" as="geometry" />
        </mxCell>
        <mxCell id="7NsR9cNIBfdw0ESPyUhh-11" value="promotionMechanismKey&amp;nbsp;&lt;font style=&quot;color: rgb(223, 24, 17);&quot;&gt;[code mécanique promo]&lt;/font&gt; &lt;font style=&quot;color: light-dark(rgb(103, 171, 159), rgb(58, 117, 107));&quot;&gt;{ex:&amp;nbsp;&lt;span style=&quot;background-color: rgb(255, 255, 255);&quot;&gt;&lt;font style=&quot;&quot; face=&quot;Roboto, sans-serif&quot;&gt;&lt;span style=&quot;white-space: pre;&quot;&gt;}&lt;/span&gt;&lt;/font&gt;&lt;/span&gt;&lt;/font&gt;" style="text;strokeColor=none;fillColor=none;align=left;verticalAlign=middle;spacingLeft=4;spacingRight=4;overflow=hidden;points=[[0,0.5],[1,0.5]];portConstraint=eastwest;rotatable=0;whiteSpace=wrap;html=1;" vertex="1" parent="0As1--4HDR7N-gtueCWr-4">
          <mxGeometry y="270" width="436" height="30" as="geometry" />
        </mxCell>
        <mxCell id="7NsR9cNIBfdw0ESPyUhh-14" value="&lt;div&gt;promotionMinimumTriggerQuantity&lt;span style=&quot;background-color: transparent; color: light-dark(rgb(0, 0, 0), rgb(255, 255, 255));&quot;&gt;&amp;nbsp;&lt;/span&gt;&lt;font style=&quot;background-color: transparent; color: rgb(223, 24, 17);&quot;&gt;[qté minimum promo]&lt;/font&gt;&lt;span style=&quot;background-color: transparent; color: light-dark(rgb(0, 0, 0), rgb(255, 255, 255));&quot;&gt; &lt;/span&gt;&lt;font style=&quot;background-color: transparent; color: light-dark(rgb(103, 171, 159), rgb(58, 117, 107));&quot;&gt;{ex:&amp;nbsp;1&lt;span style=&quot;background-color: rgb(255, 255, 255);&quot;&gt;&lt;font face=&quot;Roboto, sans-serif&quot;&gt;&lt;span style=&quot;white-space: pre;&quot;&gt;}&lt;/span&gt;&lt;/font&gt;&lt;/span&gt;&lt;/font&gt;&lt;/div&gt;" style="text;strokeColor=none;fillColor=none;align=left;verticalAlign=middle;spacingLeft=4;spacingRight=4;overflow=hidden;points=[[0,0.5],[1,0.5]];portConstraint=eastwest;rotatable=0;whiteSpace=wrap;html=1;" vertex="1" parent="0As1--4HDR7N-gtueCWr-4">
          <mxGeometry y="300" width="436" height="30" as="geometry" />
        </mxCell>
        <mxCell id="7NsR9cNIBfdw0ESPyUhh-15" value="&lt;div&gt;saleTransactionImmediateRewardAmountWithTax&lt;span style=&quot;background-color: transparent; color: light-dark(rgb(0, 0, 0), rgb(255, 255, 255));&quot;&gt;&amp;nbsp;&lt;/span&gt;&lt;font style=&quot;background-color: transparent; color: rgb(223, 24, 17);&quot;&gt;[montant avantage]&lt;/font&gt;&lt;span style=&quot;background-color: transparent; color: light-dark(rgb(0, 0, 0), rgb(255, 255, 255));&quot;&gt; &lt;/span&gt;&lt;font style=&quot;background-color: transparent; color: light-dark(rgb(103, 171, 159), rgb(58, 117, 107));&quot;&gt;{ex:&amp;nbsp;0.19&lt;span style=&quot;background-color: rgb(255, 255, 255);&quot;&gt;&lt;font face=&quot;Roboto, sans-serif&quot;&gt;&lt;span style=&quot;white-space: pre;&quot;&gt;}&lt;/span&gt;&lt;/font&gt;&lt;/span&gt;&lt;/font&gt;&lt;/div&gt;" style="text;strokeColor=none;fillColor=none;align=left;verticalAlign=middle;spacingLeft=4;spacingRight=4;overflow=hidden;points=[[0,0.5],[1,0.5]];portConstraint=eastwest;rotatable=0;whiteSpace=wrap;html=1;" vertex="1" parent="0As1--4HDR7N-gtueCWr-4">
          <mxGeometry y="330" width="436" height="30" as="geometry" />
        </mxCell>
        <mxCell id="7NsR9cNIBfdw0ESPyUhh-9" value="panelistName&amp;nbsp;&lt;font style=&quot;color: rgb(223, 24, 17);&quot;&gt;[paneliste]&lt;/font&gt; &lt;font style=&quot;color: light-dark(rgb(103, 171, 159), rgb(58, 117, 107));&quot;&gt;{ex:&amp;nbsp;A3D (uniquement)&lt;span style=&quot;background-color: rgb(255, 255, 255);&quot;&gt;&lt;font style=&quot;&quot; face=&quot;Roboto, sans-serif&quot;&gt;&lt;span style=&quot;white-space: pre;&quot;&gt;}&lt;/span&gt;&lt;/font&gt;&lt;/span&gt;&lt;/font&gt;" style="text;strokeColor=none;fillColor=none;align=left;verticalAlign=middle;spacingLeft=4;spacingRight=4;overflow=hidden;points=[[0,0.5],[1,0.5]];portConstraint=eastwest;rotatable=0;whiteSpace=wrap;html=1;" vertex="1" parent="0As1--4HDR7N-gtueCWr-4">
          <mxGeometry y="360" width="436" height="30" as="geometry" />
        </mxCell>
        <mxCell id="7NsR9cNIBfdw0ESPyUhh-10" value="panelistItemKey&amp;nbsp;&lt;font style=&quot;color: rgb(223, 24, 17);&quot;&gt;[code A3D]&lt;/font&gt; &lt;font style=&quot;color: light-dark(rgb(103, 171, 159), rgb(58, 117, 107));&quot;&gt;{ex:&amp;nbsp;6162533&lt;span style=&quot;background-color: rgb(255, 255, 255);&quot;&gt;&lt;font style=&quot;&quot; face=&quot;Roboto, sans-serif&quot;&gt;&lt;span style=&quot;white-space: pre;&quot;&gt;}&lt;/span&gt;&lt;/font&gt;&lt;/span&gt;&lt;/font&gt;" style="text;strokeColor=none;fillColor=none;align=left;verticalAlign=middle;spacingLeft=4;spacingRight=4;overflow=hidden;points=[[0,0.5],[1,0.5]];portConstraint=eastwest;rotatable=0;whiteSpace=wrap;html=1;" vertex="1" parent="0As1--4HDR7N-gtueCWr-4">
          <mxGeometry y="390" width="436" height="30" as="geometry" />
        </mxCell>
        <mxCell id="7NsR9cNIBfdw0ESPyUhh-13" style="edgeStyle=orthogonalEdgeStyle;rounded=0;orthogonalLoop=1;jettySize=auto;html=1;shape=link;" edge="1" parent="1" source="5FTgFw6TlE6LnQsB1mbU-2" target="7NsR9cNIBfdw0ESPyUhh-4">
          <mxGeometry relative="1" as="geometry" />
        </mxCell>
        <mxCell id="7NsR9cNIBfdw0ESPyUhh-16" value="fr-darwin-prd.externals_market_data.bv_competitor" style="swimlane;fontStyle=0;childLayout=stackLayout;horizontal=1;startSize=30;horizontalStack=0;resizeParent=1;resizeParentMax=0;resizeLast=0;collapsible=1;marginBottom=0;whiteSpace=wrap;html=1;fillColor=#f8cecc;strokeColor=#b85450;" vertex="1" parent="1">
          <mxGeometry x="1761" y="98" width="483" height="384" as="geometry">
            <mxRectangle x="1761" y="98" width="307" height="30" as="alternateBounds" />
          </mxGeometry>
        </mxCell>
        <mxCell id="7NsR9cNIBfdw0ESPyUhh-17" value="storeCompetitorKey&amp;nbsp;&lt;font style=&quot;color: rgb(223, 24, 17);&quot;&gt;[code compref (lettre + code LSA)]&lt;/font&gt; &lt;font style=&quot;color: light-dark(rgb(103, 171, 159), rgb(58, 117, 107));&quot;&gt;{ex:&amp;nbsp;D427250&lt;span style=&quot;background-color: rgb(255, 255, 255);&quot;&gt;&lt;font style=&quot;&quot; face=&quot;Roboto, sans-serif&quot;&gt;&lt;span style=&quot;white-space: pre;&quot;&gt;}&lt;/span&gt;&lt;/font&gt;&lt;/span&gt;&lt;/font&gt;" style="text;strokeColor=none;fillColor=none;align=left;verticalAlign=middle;spacingLeft=4;spacingRight=4;overflow=hidden;points=[[0,0.5],[1,0.5]];portConstraint=eastwest;rotatable=0;whiteSpace=wrap;html=1;" vertex="1" parent="7NsR9cNIBfdw0ESPyUhh-16">
          <mxGeometry y="30" width="483" height="30" as="geometry" />
        </mxCell>
        <mxCell id="7NsR9cNIBfdw0ESPyUhh-30" value="competitorChainKey&amp;nbsp;&lt;font style=&quot;color: rgb(223, 24, 17);&quot;&gt;[competitorChainKey]&lt;/font&gt; &lt;font style=&quot;color: light-dark(rgb(103, 171, 159), rgb(58, 117, 107));&quot;&gt;{ex:&amp;nbsp;IX3&lt;span style=&quot;background-color: rgb(255, 255, 255);&quot;&gt;&lt;font style=&quot;&quot; face=&quot;Roboto, sans-serif&quot;&gt;&lt;span style=&quot;white-space: pre;&quot;&gt;}&lt;/span&gt;&lt;/font&gt;&lt;/span&gt;&lt;/font&gt;" style="text;strokeColor=none;fillColor=none;align=left;verticalAlign=middle;spacingLeft=4;spacingRight=4;overflow=hidden;points=[[0,0.5],[1,0.5]];portConstraint=eastwest;rotatable=0;whiteSpace=wrap;html=1;" vertex="1" parent="7NsR9cNIBfdw0ESPyUhh-16">
          <mxGeometry y="60" width="483" height="30" as="geometry" />
        </mxCell>
        <mxCell id="7NsR9cNIBfdw0ESPyUhh-31" value="systemSourceCode&amp;nbsp;&lt;font style=&quot;color: rgb(223, 24, 17);&quot;&gt;[nom système source]&lt;/font&gt; &lt;font style=&quot;color: light-dark(rgb(103, 171, 159), rgb(58, 117, 107));&quot;&gt;{ex:&amp;nbsp;COMPREF&lt;span style=&quot;background-color: rgb(255, 255, 255);&quot;&gt;&lt;font style=&quot;&quot; face=&quot;Roboto, sans-serif&quot;&gt;&lt;span style=&quot;white-space: pre;&quot;&gt;} &lt;/span&gt;&lt;/font&gt;&lt;/span&gt;&lt;/font&gt;&lt;span style=&quot;color: rgb(103, 171, 159);&quot;&gt;{LSA&lt;/span&gt;&lt;span style=&quot;color: rgb(103, 171, 159); background-color: rgb(255, 255, 255);&quot;&gt;&lt;font face=&quot;Roboto, sans-serif&quot;&gt;&lt;span style=&quot;white-space: pre;&quot;&gt;} &lt;/span&gt;&lt;/font&gt;&lt;/span&gt;&lt;span style=&quot;color: rgb(103, 171, 159);&quot;&gt;{OPTIPRICE&lt;/span&gt;&lt;span style=&quot;color: rgb(103, 171, 159); background-color: rgb(255, 255, 255);&quot;&gt;&lt;font face=&quot;Roboto, sans-serif&quot;&gt;&lt;span style=&quot;white-space: pre;&quot;&gt;}&lt;/span&gt;&lt;/font&gt;&lt;/span&gt;" style="text;strokeColor=none;fillColor=none;align=left;verticalAlign=middle;spacingLeft=4;spacingRight=4;overflow=hidden;points=[[0,0.5],[1,0.5]];portConstraint=eastwest;rotatable=0;whiteSpace=wrap;html=1;" vertex="1" parent="7NsR9cNIBfdw0ESPyUhh-16">
          <mxGeometry y="90" width="483" height="30" as="geometry" />
        </mxCell>
        <mxCell id="Lz4vSR1o8DV8XNACJZ8b-1" value="storeCompetitorTypeKey&amp;nbsp;&lt;font style=&quot;color: rgb(223, 24, 17);&quot;&gt;[type service]&lt;/font&gt; &lt;font style=&quot;color: light-dark(rgb(103, 171, 159), rgb(58, 117, 107));&quot;&gt;{ex: GAS_ST&lt;span style=&quot;background-color: rgb(255, 255, 255);&quot;&gt;&lt;font style=&quot;&quot; face=&quot;Roboto, sans-serif&quot;&gt;&lt;span style=&quot;white-space: pre;&quot;&gt;} &lt;/span&gt;&lt;/font&gt;&lt;/span&gt;&lt;/font&gt;&lt;span style=&quot;color: rgb(103, 171, 159);&quot;&gt;{DRIVE&lt;/span&gt;&lt;span style=&quot;color: rgb(103, 171, 159); background-color: rgb(255, 255, 255);&quot;&gt;&lt;font face=&quot;Roboto, sans-serif&quot;&gt;&lt;span style=&quot;white-space: pre;&quot;&gt;} &lt;/span&gt;&lt;/font&gt;&lt;/span&gt;&lt;span style=&quot;color: rgb(103, 171, 159);&quot;&gt;{STORE&lt;/span&gt;&lt;span style=&quot;color: rgb(103, 171, 159); background-color: rgb(255, 255, 255);&quot;&gt;&lt;font face=&quot;Roboto, sans-serif&quot;&gt;&lt;span style=&quot;white-space: pre;&quot;&gt;}&lt;/span&gt;&lt;/font&gt;&lt;/span&gt;" style="text;strokeColor=none;fillColor=none;align=left;verticalAlign=middle;spacingLeft=4;spacingRight=4;overflow=hidden;points=[[0,0.5],[1,0.5]];portConstraint=eastwest;rotatable=0;whiteSpace=wrap;html=1;" vertex="1" parent="7NsR9cNIBfdw0ESPyUhh-16">
          <mxGeometry y="120" width="483" height="30" as="geometry" />
        </mxCell>
        <mxCell id="Lz4vSR1o8DV8XNACJZ8b-2" value="chainTypeKey&amp;nbsp;&lt;font style=&quot;color: rgb(223, 24, 17);&quot;&gt;[code type service]&lt;/font&gt; &lt;font style=&quot;color: light-dark(rgb(103, 171, 159), rgb(58, 117, 107));&quot;&gt;{ex: DRV_IND&lt;span style=&quot;background-color: rgb(255, 255, 255);&quot;&gt;&lt;font style=&quot;&quot; face=&quot;Roboto, sans-serif&quot;&gt;&lt;span style=&quot;white-space: pre;&quot;&gt;} &lt;/span&gt;&lt;/font&gt;&lt;/span&gt;&lt;/font&gt;&lt;span style=&quot;color: rgb(103, 171, 159);&quot;&gt;{DRV_STO&lt;/span&gt;&lt;span style=&quot;color: rgb(103, 171, 159); background-color: rgb(255, 255, 255);&quot;&gt;&lt;font face=&quot;Roboto, sans-serif&quot;&gt;&lt;span style=&quot;white-space: pre;&quot;&gt;}&lt;/span&gt;&lt;/font&gt;&lt;/span&gt;" style="text;strokeColor=none;fillColor=none;align=left;verticalAlign=middle;spacingLeft=4;spacingRight=4;overflow=hidden;points=[[0,0.5],[1,0.5]];portConstraint=eastwest;rotatable=0;whiteSpace=wrap;html=1;" vertex="1" parent="7NsR9cNIBfdw0ESPyUhh-16">
          <mxGeometry y="150" width="483" height="30" as="geometry" />
        </mxCell>
        <mxCell id="Lz4vSR1o8DV8XNACJZ8b-3" value="competitorChainName&amp;nbsp;&lt;font style=&quot;color: rgb(223, 24, 17);&quot;&gt;[code enseigne]&lt;/font&gt; &lt;font style=&quot;color: light-dark(rgb(103, 171, 159), rgb(58, 117, 107));&quot;&gt;{ex: LECLE&lt;span style=&quot;background-color: rgb(255, 255, 255);&quot;&gt;&lt;font style=&quot;&quot; face=&quot;Roboto, sans-serif&quot;&gt;&lt;span style=&quot;white-space: pre;&quot;&gt;} &lt;/span&gt;&lt;/font&gt;&lt;/span&gt;&lt;/font&gt;&lt;span style=&quot;color: rgb(103, 171, 159);&quot;&gt;{INTMA&lt;/span&gt;&lt;span style=&quot;color: rgb(103, 171, 159); background-color: rgb(255, 255, 255);&quot;&gt;&lt;font face=&quot;Roboto, sans-serif&quot;&gt;&lt;span style=&quot;white-space: pre;&quot;&gt;}&lt;/span&gt;&lt;/font&gt;&lt;/span&gt;" style="text;strokeColor=none;fillColor=none;align=left;verticalAlign=middle;spacingLeft=4;spacingRight=4;overflow=hidden;points=[[0,0.5],[1,0.5]];portConstraint=eastwest;rotatable=0;whiteSpace=wrap;html=1;" vertex="1" parent="7NsR9cNIBfdw0ESPyUhh-16">
          <mxGeometry y="180" width="483" height="30" as="geometry" />
        </mxCell>
        <mxCell id="Lz4vSR1o8DV8XNACJZ8b-4" value="competitorChainDescription&amp;nbsp;&lt;font style=&quot;color: rgb(223, 24, 17);&quot;&gt;[enseigne]&lt;/font&gt;&amp;nbsp;&lt;span style=&quot;color: rgb(103, 171, 159);&quot;&gt;{ex: CENTRE LECLERC&lt;/span&gt;&lt;span style=&quot;color: rgb(103, 171, 159); background-color: rgb(255, 255, 255);&quot;&gt;&lt;font face=&quot;Roboto, sans-serif&quot;&gt;&lt;span style=&quot;white-space: pre;&quot;&gt;}{AUCHAN}...&lt;/span&gt;&lt;/font&gt;&lt;/span&gt;" style="text;strokeColor=none;fillColor=none;align=left;verticalAlign=middle;spacingLeft=4;spacingRight=4;overflow=hidden;points=[[0,0.5],[1,0.5]];portConstraint=eastwest;rotatable=0;whiteSpace=wrap;html=1;" vertex="1" parent="7NsR9cNIBfdw0ESPyUhh-16">
          <mxGeometry y="210" width="483" height="30" as="geometry" />
        </mxCell>
        <mxCell id="Lz4vSR1o8DV8XNACJZ8b-5" value="mainSoreCompetitorKey&amp;nbsp;&lt;font style=&quot;color: rgb(223, 24, 17);&quot;&gt;[code LSA]&lt;/font&gt;&amp;nbsp;&lt;span style=&quot;color: rgb(103, 171, 159);&quot;&gt;{ex: 4745&lt;/span&gt;&lt;span style=&quot;color: rgb(103, 171, 159); background-color: rgb(255, 255, 255);&quot;&gt;&lt;font face=&quot;Roboto, sans-serif&quot;&gt;&lt;span style=&quot;white-space: pre;&quot;&gt;}&lt;/span&gt;&lt;/font&gt;&lt;/span&gt;" style="text;strokeColor=none;fillColor=none;align=left;verticalAlign=middle;spacingLeft=4;spacingRight=4;overflow=hidden;points=[[0,0.5],[1,0.5]];portConstraint=eastwest;rotatable=0;whiteSpace=wrap;html=1;" vertex="1" parent="7NsR9cNIBfdw0ESPyUhh-16">
          <mxGeometry y="240" width="483" height="30" as="geometry" />
        </mxCell>
        <mxCell id="Lz4vSR1o8DV8XNACJZ8b-6" value="competitorItemDescription&amp;nbsp;&lt;font style=&quot;color: rgb(223, 24, 17);&quot;&gt;[description]&lt;/font&gt;&amp;nbsp;&lt;span style=&quot;color: rgb(103, 171, 159);&quot;&gt;{ex: DRV Monop besançon&lt;/span&gt;&lt;span style=&quot;color: rgb(103, 171, 159); background-color: rgb(255, 255, 255);&quot;&gt;&lt;font face=&quot;Roboto, sans-serif&quot;&gt;&lt;span style=&quot;white-space: pre;&quot;&gt;}&lt;/span&gt;&lt;/font&gt;&lt;/span&gt;" style="text;strokeColor=none;fillColor=none;align=left;verticalAlign=middle;spacingLeft=4;spacingRight=4;overflow=hidden;points=[[0,0.5],[1,0.5]];portConstraint=eastwest;rotatable=0;whiteSpace=wrap;html=1;" vertex="1" parent="7NsR9cNIBfdw0ESPyUhh-16">
          <mxGeometry y="270" width="483" height="30" as="geometry" />
        </mxCell>
        <mxCell id="Lz4vSR1o8DV8XNACJZ8b-7" value="competitorItemName&amp;nbsp;&lt;font style=&quot;color: rgb(223, 24, 17);&quot;&gt;[description 2]&lt;/font&gt;&amp;nbsp;&lt;span style=&quot;color: rgb(103, 171, 159);&quot;&gt;{ex: DRV Monop besançon&lt;/span&gt;&lt;span style=&quot;color: rgb(103, 171, 159); background-color: rgb(255, 255, 255);&quot;&gt;&lt;font face=&quot;Roboto, sans-serif&quot;&gt;&lt;span style=&quot;white-space: pre;&quot;&gt;}&lt;/span&gt;&lt;/font&gt;&lt;/span&gt;" style="text;strokeColor=none;fillColor=none;align=left;verticalAlign=middle;spacingLeft=4;spacingRight=4;overflow=hidden;points=[[0,0.5],[1,0.5]];portConstraint=eastwest;rotatable=0;whiteSpace=wrap;html=1;" vertex="1" parent="7NsR9cNIBfdw0ESPyUhh-16">
          <mxGeometry y="300" width="483" height="30" as="geometry" />
        </mxCell>
        <mxCell id="Lz4vSR1o8DV8XNACJZ8b-8" value="adressOne&amp;nbsp;&lt;font style=&quot;color: rgb(223, 24, 17);&quot;&gt;[adresse 1]&lt;/font&gt;&amp;nbsp;&lt;span style=&quot;color: rgb(103, 171, 159);&quot;&gt;{ex: 389 Route de Saint-Simon &lt;/span&gt;&lt;span style=&quot;color: rgb(103, 171, 159); background-color: rgb(255, 255, 255);&quot;&gt;&lt;font face=&quot;Roboto, sans-serif&quot;&gt;&lt;span style=&quot;white-space: pre;&quot;&gt;}&lt;/span&gt;&lt;/font&gt;&lt;/span&gt;" style="text;strokeColor=none;fillColor=none;align=left;verticalAlign=middle;spacingLeft=4;spacingRight=4;overflow=hidden;points=[[0,0.5],[1,0.5]];portConstraint=eastwest;rotatable=0;whiteSpace=wrap;html=1;" vertex="1" parent="7NsR9cNIBfdw0ESPyUhh-16">
          <mxGeometry y="330" width="483" height="27" as="geometry" />
        </mxCell>
        <mxCell id="_jiVCjV8cncwZZWRqH-9-1" value="postalCode&amp;nbsp;&lt;font style=&quot;color: rgb(223, 24, 17);&quot;&gt;[code postal]&lt;/font&gt;&amp;nbsp;&lt;span style=&quot;color: rgb(103, 171, 159);&quot;&gt;{ex: 31100&lt;/span&gt;&lt;span style=&quot;color: rgb(103, 171, 159); background-color: rgb(255, 255, 255);&quot;&gt;&lt;font face=&quot;Roboto, sans-serif&quot;&gt;&lt;span style=&quot;white-space: pre;&quot;&gt;}&lt;/span&gt;&lt;/font&gt;&lt;/span&gt;" style="text;strokeColor=none;fillColor=none;align=left;verticalAlign=middle;spacingLeft=4;spacingRight=4;overflow=hidden;points=[[0,0.5],[1,0.5]];portConstraint=eastwest;rotatable=0;whiteSpace=wrap;html=1;" vertex="1" parent="7NsR9cNIBfdw0ESPyUhh-16">
          <mxGeometry y="357" width="483" height="27" as="geometry" />
        </mxCell>
        <mxCell id="H4yULS8eyxQX-8BWn6bs-1" value="vg1p-apps-optiprice-prd-a4.metier.store" style="swimlane;fontStyle=0;childLayout=stackLayout;horizontal=1;startSize=30;horizontalStack=0;resizeParent=1;resizeParentMax=0;resizeLast=0;collapsible=1;marginBottom=0;whiteSpace=wrap;html=1;fillColor=#dae8fc;strokeColor=#6c8ebf;" vertex="1" parent="1">
          <mxGeometry x="132" y="526" width="476" height="1200" as="geometry" />
        </mxCell>
        <mxCell id="H4yULS8eyxQX-8BWn6bs-2" value="store_key&amp;nbsp;&lt;font style=&quot;color: rgb(223, 24, 17);&quot;&gt;[EAN]&lt;/font&gt; &lt;font style=&quot;color: light-dark(rgb(103, 171, 159), rgb(58, 117, 107));&quot;&gt;{ex: 3020180255677&lt;span style=&quot;background-color: rgb(255, 255, 255);&quot;&gt;&lt;font style=&quot;&quot; face=&quot;Roboto, sans-serif&quot;&gt;&lt;span style=&quot;white-space: pre;&quot;&gt;}&lt;/span&gt;&lt;/font&gt;&lt;/span&gt;&lt;/font&gt;" style="text;strokeColor=none;fillColor=none;align=left;verticalAlign=middle;spacingLeft=4;spacingRight=4;overflow=hidden;points=[[0,0.5],[1,0.5]];portConstraint=eastwest;rotatable=0;whiteSpace=wrap;html=1;" vertex="1" parent="H4yULS8eyxQX-8BWn6bs-1">
          <mxGeometry y="30" width="476" height="30" as="geometry" />
        </mxCell>
        <mxCell id="H4yULS8eyxQX-8BWn6bs-3" value="sto_thales_key&amp;nbsp;&lt;font style=&quot;color: rgb(223, 24, 17);&quot;&gt;[code thales]&lt;/font&gt; &lt;font style=&quot;color: rgb(103, 171, 159);&quot;&gt;&lt;font style=&quot;&quot;&gt;{ex:&amp;nbsp;FRE615&lt;/font&gt;&lt;span style=&quot;background-color: rgb(255, 255, 255);&quot;&gt;&lt;font style=&quot;&quot; face=&quot;Roboto, sans-serif&quot;&gt;&lt;font style=&quot;&quot;&gt;&lt;span style=&quot;white-space: pre;&quot;&gt;}&lt;/span&gt;&lt;/font&gt;&lt;/font&gt;&lt;/span&gt;&lt;/font&gt;" style="text;strokeColor=none;fillColor=none;align=left;verticalAlign=middle;spacingLeft=4;spacingRight=4;overflow=hidden;points=[[0,0.5],[1,0.5]];portConstraint=eastwest;rotatable=0;whiteSpace=wrap;html=1;" vertex="1" parent="H4yULS8eyxQX-8BWn6bs-1">
          <mxGeometry y="60" width="476" height="30" as="geometry" />
        </mxCell>
        <mxCell id="H4yULS8eyxQX-8BWn6bs-4" value="store_desc&amp;nbsp;&lt;font style=&quot;color: rgb(223, 24, 17);&quot;&gt;[description magasin]&lt;/font&gt; &lt;font style=&quot;color: light-dark(rgb(103, 171, 159), rgb(58, 117, 107));&quot;&gt;{ex:&amp;nbsp;DRV CHEVIGNY ST SAUVEUR&lt;span style=&quot;background-color: rgb(255, 255, 255);&quot;&gt;&lt;font style=&quot;&quot; face=&quot;Roboto, sans-serif&quot;&gt;&lt;span style=&quot;white-space: pre;&quot;&gt;}&lt;/span&gt;&lt;/font&gt;&lt;/span&gt;&lt;/font&gt;" style="text;strokeColor=none;fillColor=none;align=left;verticalAlign=middle;spacingLeft=4;spacingRight=4;overflow=hidden;points=[[0,0.5],[1,0.5]];portConstraint=eastwest;rotatable=0;whiteSpace=wrap;html=1;" vertex="1" parent="H4yULS8eyxQX-8BWn6bs-1">
          <mxGeometry y="90" width="476" height="30" as="geometry" />
        </mxCell>
        <mxCell id="H4yULS8eyxQX-8BWn6bs-5" value="store_long_desc&amp;nbsp;&lt;font style=&quot;color: rgb(223, 24, 17);&quot;&gt;[description longue magasin]&lt;/font&gt; &lt;font style=&quot;color: light-dark(rgb(103, 171, 159), rgb(58, 117, 107));&quot;&gt;{ex:&amp;nbsp;DRV CHEVIGNY ST SAUVEUR&lt;span style=&quot;background-color: rgb(255, 255, 255);&quot;&gt;&lt;font style=&quot;&quot; face=&quot;Roboto, sans-serif&quot;&gt;&lt;span style=&quot;white-space: pre;&quot;&gt;}&lt;/span&gt;&lt;/font&gt;&lt;/span&gt;&lt;/font&gt;" style="text;strokeColor=none;fillColor=none;align=left;verticalAlign=middle;spacingLeft=4;spacingRight=4;overflow=hidden;points=[[0,0.5],[1,0.5]];portConstraint=eastwest;rotatable=0;whiteSpace=wrap;html=1;" vertex="1" parent="H4yULS8eyxQX-8BWn6bs-1">
          <mxGeometry y="120" width="476" height="30" as="geometry" />
        </mxCell>
        <mxCell id="H4yULS8eyxQX-8BWn6bs-6" value="store_short_desc&amp;nbsp;&lt;font style=&quot;color: rgb(223, 24, 17);&quot;&gt;[description courte magasin]&lt;/font&gt; &lt;font style=&quot;color: light-dark(rgb(103, 171, 159), rgb(58, 117, 107));&quot;&gt;{ex: CHEVIGNY ST SAUVEUR&lt;span style=&quot;background-color: rgb(255, 255, 255);&quot;&gt;&lt;font style=&quot;&quot; face=&quot;Roboto, sans-serif&quot;&gt;&lt;span style=&quot;white-space: pre;&quot;&gt;}&lt;/span&gt;&lt;/font&gt;&lt;/span&gt;&lt;/font&gt;" style="text;strokeColor=none;fillColor=none;align=left;verticalAlign=middle;spacingLeft=4;spacingRight=4;overflow=hidden;points=[[0,0.5],[1,0.5]];portConstraint=eastwest;rotatable=0;whiteSpace=wrap;html=1;" vertex="1" parent="H4yULS8eyxQX-8BWn6bs-1">
          <mxGeometry y="150" width="476" height="30" as="geometry" />
        </mxCell>
        <mxCell id="H4yULS8eyxQX-8BWn6bs-7" value="chain_type_key&amp;nbsp;&lt;font style=&quot;color: rgb(223, 24, 17);&quot;&gt;[]&lt;/font&gt; &lt;font style=&quot;color: light-dark(rgb(103, 171, 159), rgb(58, 117, 107));&quot;&gt;{ex:&amp;nbsp;PRX&lt;span style=&quot;background-color: rgb(255, 255, 255);&quot;&gt;&lt;font style=&quot;&quot; face=&quot;Roboto, sans-serif&quot;&gt;&lt;span style=&quot;white-space: pre;&quot;&gt;}&lt;/span&gt;&lt;/font&gt;&lt;/span&gt;&lt;/font&gt;" style="text;strokeColor=none;fillColor=none;align=left;verticalAlign=middle;spacingLeft=4;spacingRight=4;overflow=hidden;points=[[0,0.5],[1,0.5]];portConstraint=eastwest;rotatable=0;whiteSpace=wrap;html=1;" vertex="1" parent="H4yULS8eyxQX-8BWn6bs-1">
          <mxGeometry y="180" width="476" height="30" as="geometry" />
        </mxCell>
        <mxCell id="H4yULS8eyxQX-8BWn6bs-8" value="chain_type_desc&amp;nbsp;&lt;font style=&quot;color: rgb(223, 24, 17);&quot;&gt;[]&lt;/font&gt; &lt;font style=&quot;&quot;&gt;&lt;font style=&quot;color: rgb(103, 171, 159);&quot;&gt;&lt;font&gt;{ex:&amp;nbsp;PROXIMITE&lt;/font&gt;&lt;/font&gt;&lt;span style=&quot;color: light-dark(rgb(103, 171, 159), rgb(58, 117, 107)); background-color: rgb(255, 255, 255);&quot;&gt;&lt;font style=&quot;&quot; face=&quot;Roboto, sans-serif&quot;&gt;&lt;span style=&quot;white-space: pre;&quot;&gt;}&lt;/span&gt;&lt;/font&gt;&lt;/span&gt;&lt;/font&gt;" style="text;strokeColor=none;fillColor=none;align=left;verticalAlign=middle;spacingLeft=4;spacingRight=4;overflow=hidden;points=[[0,0.5],[1,0.5]];portConstraint=eastwest;rotatable=0;whiteSpace=wrap;html=1;" vertex="1" parent="H4yULS8eyxQX-8BWn6bs-1">
          <mxGeometry y="210" width="476" height="30" as="geometry" />
        </mxCell>
        <mxCell id="H4yULS8eyxQX-8BWn6bs-15" value="chain_key&amp;nbsp;&lt;font style=&quot;color: rgb(223, 24, 17);&quot;&gt;[]&lt;/font&gt; &lt;font style=&quot;&quot;&gt;&lt;font style=&quot;color: rgb(103, 171, 159);&quot;&gt;&lt;font&gt;{ex: CAR&lt;/font&gt;&lt;/font&gt;&lt;span style=&quot;color: light-dark(rgb(103, 171, 159), rgb(58, 117, 107)); background-color: rgb(255, 255, 255);&quot;&gt;&lt;font style=&quot;&quot; face=&quot;Roboto, sans-serif&quot;&gt;&lt;span style=&quot;white-space: pre;&quot;&gt;}&lt;/span&gt;&lt;/font&gt;&lt;/span&gt;&lt;/font&gt;" style="text;strokeColor=none;fillColor=none;align=left;verticalAlign=middle;spacingLeft=4;spacingRight=4;overflow=hidden;points=[[0,0.5],[1,0.5]];portConstraint=eastwest;rotatable=0;whiteSpace=wrap;html=1;" vertex="1" parent="H4yULS8eyxQX-8BWn6bs-1">
          <mxGeometry y="240" width="476" height="30" as="geometry" />
        </mxCell>
        <mxCell id="H4yULS8eyxQX-8BWn6bs-16" value="chain_desc&amp;nbsp;&lt;font style=&quot;color: rgb(223, 24, 17);&quot;&gt;[]&lt;/font&gt; &lt;font style=&quot;&quot;&gt;&lt;font style=&quot;color: rgb(103, 171, 159);&quot;&gt;&lt;font&gt;{ex: CARREFOUR&lt;/font&gt;&lt;/font&gt;&lt;span style=&quot;color: light-dark(rgb(103, 171, 159), rgb(58, 117, 107)); background-color: rgb(255, 255, 255);&quot;&gt;&lt;font style=&quot;&quot; face=&quot;Roboto, sans-serif&quot;&gt;&lt;span style=&quot;white-space: pre;&quot;&gt;}&lt;/span&gt;&lt;/font&gt;&lt;/span&gt;&lt;/font&gt;" style="text;strokeColor=none;fillColor=none;align=left;verticalAlign=middle;spacingLeft=4;spacingRight=4;overflow=hidden;points=[[0,0.5],[1,0.5]];portConstraint=eastwest;rotatable=0;whiteSpace=wrap;html=1;" vertex="1" parent="H4yULS8eyxQX-8BWn6bs-1">
          <mxGeometry y="270" width="476" height="30" as="geometry" />
        </mxCell>
        <mxCell id="H4yULS8eyxQX-8BWn6bs-17" value="sto_int_flag&amp;nbsp;&lt;font style=&quot;color: rgb(223, 24, 17);&quot;&gt;[]&lt;/font&gt; &lt;font style=&quot;&quot;&gt;&lt;font style=&quot;color: rgb(103, 171, 159);&quot;&gt;&lt;font&gt;{ex: 1&lt;/font&gt;&lt;/font&gt;&lt;span style=&quot;color: light-dark(rgb(103, 171, 159), rgb(58, 117, 107)); background-color: rgb(255, 255, 255);&quot;&gt;&lt;font style=&quot;&quot; face=&quot;Roboto, sans-serif&quot;&gt;&lt;span style=&quot;white-space: pre;&quot;&gt;}&lt;/span&gt;&lt;/font&gt;&lt;/span&gt;&lt;/font&gt;" style="text;strokeColor=none;fillColor=none;align=left;verticalAlign=middle;spacingLeft=4;spacingRight=4;overflow=hidden;points=[[0,0.5],[1,0.5]];portConstraint=eastwest;rotatable=0;whiteSpace=wrap;html=1;" vertex="1" parent="H4yULS8eyxQX-8BWn6bs-1">
          <mxGeometry y="300" width="476" height="30" as="geometry" />
        </mxCell>
        <mxCell id="H4yULS8eyxQX-8BWn6bs-18" value="gas_station_flag&amp;nbsp;&lt;font style=&quot;color: rgb(223, 24, 17);&quot;&gt;[flag gas station]&lt;/font&gt; &lt;font style=&quot;&quot;&gt;&lt;font style=&quot;color: rgb(103, 171, 159);&quot;&gt;&lt;font&gt;{ex: 0&lt;/font&gt;&lt;/font&gt;&lt;span style=&quot;color: light-dark(rgb(103, 171, 159), rgb(58, 117, 107)); background-color: rgb(255, 255, 255);&quot;&gt;&lt;font style=&quot;&quot; face=&quot;Roboto, sans-serif&quot;&gt;&lt;span style=&quot;white-space: pre;&quot;&gt;}&lt;/span&gt;&lt;/font&gt;&lt;/span&gt;&lt;/font&gt;" style="text;strokeColor=none;fillColor=none;align=left;verticalAlign=middle;spacingLeft=4;spacingRight=4;overflow=hidden;points=[[0,0.5],[1,0.5]];portConstraint=eastwest;rotatable=0;whiteSpace=wrap;html=1;" vertex="1" parent="H4yULS8eyxQX-8BWn6bs-1">
          <mxGeometry y="330" width="476" height="30" as="geometry" />
        </mxCell>
        <mxCell id="H4yULS8eyxQX-8BWn6bs-19" value="drive_picking_flag&amp;nbsp;&lt;font style=&quot;color: rgb(223, 24, 17);&quot;&gt;[flag drive piéton]&lt;/font&gt; &lt;font style=&quot;&quot;&gt;&lt;font style=&quot;color: rgb(103, 171, 159);&quot;&gt;&lt;font&gt;{ex: 1&lt;/font&gt;&lt;/font&gt;&lt;span style=&quot;color: light-dark(rgb(103, 171, 159), rgb(58, 117, 107)); background-color: rgb(255, 255, 255);&quot;&gt;&lt;font style=&quot;&quot; face=&quot;Roboto, sans-serif&quot;&gt;&lt;span style=&quot;white-space: pre;&quot;&gt;}&lt;/span&gt;&lt;/font&gt;&lt;/span&gt;&lt;/font&gt;" style="text;strokeColor=none;fillColor=none;align=left;verticalAlign=middle;spacingLeft=4;spacingRight=4;overflow=hidden;points=[[0,0.5],[1,0.5]];portConstraint=eastwest;rotatable=0;whiteSpace=wrap;html=1;" vertex="1" parent="H4yULS8eyxQX-8BWn6bs-1">
          <mxGeometry y="360" width="476" height="30" as="geometry" />
        </mxCell>
        <mxCell id="H4yULS8eyxQX-8BWn6bs-21" value="store_sal_size&amp;nbsp;&lt;font style=&quot;color: rgb(223, 24, 17);&quot;&gt;[surface de vente (m²)]&lt;/font&gt; &lt;font style=&quot;&quot;&gt;&lt;font style=&quot;color: rgb(103, 171, 159);&quot;&gt;&lt;font&gt;{ex:&amp;nbsp;3760&lt;/font&gt;&lt;/font&gt;&lt;span style=&quot;color: light-dark(rgb(103, 171, 159), rgb(58, 117, 107)); background-color: rgb(255, 255, 255);&quot;&gt;&lt;font style=&quot;&quot; face=&quot;Roboto, sans-serif&quot;&gt;&lt;span style=&quot;white-space: pre;&quot;&gt;}&lt;/span&gt;&lt;/font&gt;&lt;/span&gt;&lt;/font&gt;" style="text;strokeColor=none;fillColor=none;align=left;verticalAlign=middle;spacingLeft=4;spacingRight=4;overflow=hidden;points=[[0,0.5],[1,0.5]];portConstraint=eastwest;rotatable=0;whiteSpace=wrap;html=1;" vertex="1" parent="H4yULS8eyxQX-8BWn6bs-1">
          <mxGeometry y="390" width="476" height="30" as="geometry" />
        </mxCell>
        <mxCell id="H4yULS8eyxQX-8BWn6bs-20" value="create_date&amp;nbsp;&lt;font style=&quot;color: rgb(223, 24, 17);&quot;&gt;[date créa magasin]&lt;/font&gt; &lt;font style=&quot;&quot;&gt;&lt;font style=&quot;color: rgb(103, 171, 159);&quot;&gt;&lt;font&gt;{ex:&amp;nbsp;2011-04-01&lt;/font&gt;&lt;/font&gt;&lt;span style=&quot;color: light-dark(rgb(103, 171, 159), rgb(58, 117, 107)); background-color: rgb(255, 255, 255);&quot;&gt;&lt;font style=&quot;&quot; face=&quot;Roboto, sans-serif&quot;&gt;&lt;span style=&quot;white-space: pre;&quot;&gt;}&lt;/span&gt;&lt;/font&gt;&lt;/span&gt;&lt;/font&gt;" style="text;strokeColor=none;fillColor=none;align=left;verticalAlign=middle;spacingLeft=4;spacingRight=4;overflow=hidden;points=[[0,0.5],[1,0.5]];portConstraint=eastwest;rotatable=0;whiteSpace=wrap;html=1;" vertex="1" parent="H4yULS8eyxQX-8BWn6bs-1">
          <mxGeometry y="420" width="476" height="30" as="geometry" />
        </mxCell>
        <mxCell id="H4yULS8eyxQX-8BWn6bs-22" value="update_date&amp;nbsp;&lt;font style=&quot;color: rgb(223, 24, 17);&quot;&gt;[date màj magasin]&lt;/font&gt; &lt;font style=&quot;&quot;&gt;&lt;font style=&quot;color: rgb(103, 171, 159);&quot;&gt;&lt;font&gt;{ex: NULL&lt;/font&gt;&lt;/font&gt;&lt;span style=&quot;color: light-dark(rgb(103, 171, 159), rgb(58, 117, 107)); background-color: rgb(255, 255, 255);&quot;&gt;&lt;font style=&quot;&quot; face=&quot;Roboto, sans-serif&quot;&gt;&lt;span style=&quot;white-space: pre;&quot;&gt;}&lt;/span&gt;&lt;/font&gt;&lt;/span&gt;&lt;/font&gt;" style="text;strokeColor=none;fillColor=none;align=left;verticalAlign=middle;spacingLeft=4;spacingRight=4;overflow=hidden;points=[[0,0.5],[1,0.5]];portConstraint=eastwest;rotatable=0;whiteSpace=wrap;html=1;" vertex="1" parent="H4yULS8eyxQX-8BWn6bs-1">
          <mxGeometry y="450" width="476" height="30" as="geometry" />
        </mxCell>
        <mxCell id="H4yULS8eyxQX-8BWn6bs-23" value="sto_open_date&amp;nbsp;&lt;font style=&quot;color: rgb(223, 24, 17);&quot;&gt;[date ouverture magasin]&lt;/font&gt; &lt;font style=&quot;&quot;&gt;&lt;font style=&quot;color: rgb(103, 171, 159);&quot;&gt;&lt;font&gt;{ex:&amp;nbsp;2007-10-30&lt;/font&gt;&lt;/font&gt;&lt;span style=&quot;color: light-dark(rgb(103, 171, 159), rgb(58, 117, 107)); background-color: rgb(255, 255, 255);&quot;&gt;&lt;font style=&quot;&quot; face=&quot;Roboto, sans-serif&quot;&gt;&lt;span style=&quot;white-space: pre;&quot;&gt;}&lt;/span&gt;&lt;/font&gt;&lt;/span&gt;&lt;/font&gt;" style="text;strokeColor=none;fillColor=none;align=left;verticalAlign=middle;spacingLeft=4;spacingRight=4;overflow=hidden;points=[[0,0.5],[1,0.5]];portConstraint=eastwest;rotatable=0;whiteSpace=wrap;html=1;" vertex="1" parent="H4yULS8eyxQX-8BWn6bs-1">
          <mxGeometry y="480" width="476" height="30" as="geometry" />
        </mxCell>
        <mxCell id="H4yULS8eyxQX-8BWn6bs-24" value="address1&amp;nbsp;&lt;font style=&quot;color: rgb(223, 24, 17);&quot;&gt;[adresse 1]&lt;/font&gt; &lt;font style=&quot;&quot;&gt;&lt;font style=&quot;color: rgb(103, 171, 159);&quot;&gt;&lt;font&gt;{ex:&amp;nbsp;53 RUE DU PARC FORESTIER&lt;/font&gt;&lt;/font&gt;&lt;span style=&quot;color: light-dark(rgb(103, 171, 159), rgb(58, 117, 107)); background-color: rgb(255, 255, 255);&quot;&gt;&lt;font style=&quot;&quot; face=&quot;Roboto, sans-serif&quot;&gt;&lt;span style=&quot;white-space: pre;&quot;&gt;}&lt;/span&gt;&lt;/font&gt;&lt;/span&gt;&lt;/font&gt;" style="text;strokeColor=none;fillColor=none;align=left;verticalAlign=middle;spacingLeft=4;spacingRight=4;overflow=hidden;points=[[0,0.5],[1,0.5]];portConstraint=eastwest;rotatable=0;whiteSpace=wrap;html=1;" vertex="1" parent="H4yULS8eyxQX-8BWn6bs-1">
          <mxGeometry y="510" width="476" height="30" as="geometry" />
        </mxCell>
        <mxCell id="H4yULS8eyxQX-8BWn6bs-25" value="address2&amp;nbsp;&lt;font style=&quot;color: rgb(223, 24, 17);&quot;&gt;[adresse 2]&lt;/font&gt; &lt;font style=&quot;&quot;&gt;&lt;font style=&quot;color: rgb(103, 171, 159);&quot;&gt;&lt;font&gt;{ex:&amp;nbsp;ZA CHESNES LE LOUP&lt;/font&gt;&lt;/font&gt;&lt;span style=&quot;color: light-dark(rgb(103, 171, 159), rgb(58, 117, 107)); background-color: rgb(255, 255, 255);&quot;&gt;&lt;font style=&quot;&quot; face=&quot;Roboto, sans-serif&quot;&gt;&lt;span style=&quot;white-space: pre;&quot;&gt;}&lt;/span&gt;&lt;/font&gt;&lt;/span&gt;&lt;/font&gt;" style="text;strokeColor=none;fillColor=none;align=left;verticalAlign=middle;spacingLeft=4;spacingRight=4;overflow=hidden;points=[[0,0.5],[1,0.5]];portConstraint=eastwest;rotatable=0;whiteSpace=wrap;html=1;" vertex="1" parent="H4yULS8eyxQX-8BWn6bs-1">
          <mxGeometry y="540" width="476" height="30" as="geometry" />
        </mxCell>
        <mxCell id="H4yULS8eyxQX-8BWn6bs-26" value="postcode&amp;nbsp;&lt;font style=&quot;color: rgb(223, 24, 17);&quot;&gt;[code postal]&lt;/font&gt; &lt;font style=&quot;&quot;&gt;&lt;font style=&quot;color: rgb(103, 171, 159);&quot;&gt;&lt;font&gt;{ex:&amp;nbsp;38070&lt;/font&gt;&lt;/font&gt;&lt;span style=&quot;color: light-dark(rgb(103, 171, 159), rgb(58, 117, 107)); background-color: rgb(255, 255, 255);&quot;&gt;&lt;font style=&quot;&quot; face=&quot;Roboto, sans-serif&quot;&gt;&lt;span style=&quot;white-space: pre;&quot;&gt;}&lt;/span&gt;&lt;/font&gt;&lt;/span&gt;&lt;/font&gt;" style="text;strokeColor=none;fillColor=none;align=left;verticalAlign=middle;spacingLeft=4;spacingRight=4;overflow=hidden;points=[[0,0.5],[1,0.5]];portConstraint=eastwest;rotatable=0;whiteSpace=wrap;html=1;" vertex="1" parent="H4yULS8eyxQX-8BWn6bs-1">
          <mxGeometry y="570" width="476" height="30" as="geometry" />
        </mxCell>
        <mxCell id="H4yULS8eyxQX-8BWn6bs-27" value="city&amp;nbsp;&lt;font style=&quot;color: rgb(223, 24, 17);&quot;&gt;[ville]&lt;/font&gt; &lt;font style=&quot;&quot;&gt;&lt;font style=&quot;color: rgb(103, 171, 159);&quot;&gt;&lt;font&gt;{ex:&amp;nbsp;ST QUENTIN FALLAVIER&lt;/font&gt;&lt;/font&gt;&lt;span style=&quot;color: light-dark(rgb(103, 171, 159), rgb(58, 117, 107)); background-color: rgb(255, 255, 255);&quot;&gt;&lt;font style=&quot;&quot; face=&quot;Roboto, sans-serif&quot;&gt;&lt;span style=&quot;white-space: pre;&quot;&gt;}&lt;/span&gt;&lt;/font&gt;&lt;/span&gt;&lt;/font&gt;" style="text;strokeColor=none;fillColor=none;align=left;verticalAlign=middle;spacingLeft=4;spacingRight=4;overflow=hidden;points=[[0,0.5],[1,0.5]];portConstraint=eastwest;rotatable=0;whiteSpace=wrap;html=1;" vertex="1" parent="H4yULS8eyxQX-8BWn6bs-1">
          <mxGeometry y="600" width="476" height="30" as="geometry" />
        </mxCell>
        <mxCell id="H4yULS8eyxQX-8BWn6bs-28" value="banner_key&amp;nbsp;&lt;font style=&quot;color: rgb(223, 24, 17);&quot;&gt;[code bannière]&lt;/font&gt; &lt;font style=&quot;&quot;&gt;&lt;font style=&quot;color: rgb(103, 171, 159);&quot;&gt;&lt;font&gt;{ex:&amp;nbsp;30&lt;/font&gt;&lt;/font&gt;&lt;span style=&quot;color: light-dark(rgb(103, 171, 159), rgb(58, 117, 107)); background-color: rgb(255, 255, 255);&quot;&gt;&lt;font style=&quot;&quot; face=&quot;Roboto, sans-serif&quot;&gt;&lt;span style=&quot;white-space: pre;&quot;&gt;}&lt;/span&gt;&lt;/font&gt;&lt;/span&gt;&lt;/font&gt;" style="text;strokeColor=none;fillColor=none;align=left;verticalAlign=middle;spacingLeft=4;spacingRight=4;overflow=hidden;points=[[0,0.5],[1,0.5]];portConstraint=eastwest;rotatable=0;whiteSpace=wrap;html=1;" vertex="1" parent="H4yULS8eyxQX-8BWn6bs-1">
          <mxGeometry y="630" width="476" height="30" as="geometry" />
        </mxCell>
        <mxCell id="H4yULS8eyxQX-8BWn6bs-29" value="banner_desc&amp;nbsp;&lt;font style=&quot;color: rgb(223, 24, 17);&quot;&gt;[description bannière]&lt;/font&gt; &lt;font style=&quot;&quot;&gt;&lt;font style=&quot;color: rgb(103, 171, 159);&quot;&gt;&lt;font&gt;{ex:&amp;nbsp;CARREFOUR.FR&lt;/font&gt;&lt;/font&gt;&lt;span style=&quot;color: light-dark(rgb(103, 171, 159), rgb(58, 117, 107)); background-color: rgb(255, 255, 255);&quot;&gt;&lt;font style=&quot;&quot; face=&quot;Roboto, sans-serif&quot;&gt;&lt;span style=&quot;white-space: pre;&quot;&gt;}&lt;/span&gt;&lt;/font&gt;&lt;/span&gt;&lt;/font&gt;" style="text;strokeColor=none;fillColor=none;align=left;verticalAlign=middle;spacingLeft=4;spacingRight=4;overflow=hidden;points=[[0,0.5],[1,0.5]];portConstraint=eastwest;rotatable=0;whiteSpace=wrap;html=1;" vertex="1" parent="H4yULS8eyxQX-8BWn6bs-1">
          <mxGeometry y="660" width="476" height="30" as="geometry" />
        </mxCell>
        <mxCell id="H4yULS8eyxQX-8BWn6bs-30" value="satellite_key&amp;nbsp;&lt;font style=&quot;color: rgb(223, 24, 17);&quot;&gt;[code sous-zone commerciale]&lt;/font&gt; &lt;font style=&quot;&quot;&gt;&lt;font style=&quot;color: rgb(103, 171, 159);&quot;&gt;&lt;font&gt;{ex: FRPP3PP3&lt;/font&gt;&lt;/font&gt;&lt;span style=&quot;color: light-dark(rgb(103, 171, 159), rgb(58, 117, 107)); background-color: rgb(255, 255, 255);&quot;&gt;&lt;font style=&quot;&quot; face=&quot;Roboto, sans-serif&quot;&gt;&lt;span style=&quot;white-space: pre;&quot;&gt;}&lt;/span&gt;&lt;/font&gt;&lt;/span&gt;&lt;/font&gt;" style="text;strokeColor=none;fillColor=none;align=left;verticalAlign=middle;spacingLeft=4;spacingRight=4;overflow=hidden;points=[[0,0.5],[1,0.5]];portConstraint=eastwest;rotatable=0;whiteSpace=wrap;html=1;" vertex="1" parent="H4yULS8eyxQX-8BWn6bs-1">
          <mxGeometry y="690" width="476" height="30" as="geometry" />
        </mxCell>
        <mxCell id="H4yULS8eyxQX-8BWn6bs-31" value="satellite_desc&amp;nbsp;&lt;font style=&quot;color: rgb(223, 24, 17);&quot;&gt;[description sous-zone commerciale]&lt;/font&gt; &lt;font style=&quot;&quot;&gt;&lt;font style=&quot;color: rgb(103, 171, 159);&quot;&gt;&lt;font&gt;{ex:&amp;nbsp;PROXI OUEST&lt;/font&gt;&lt;/font&gt;&lt;span style=&quot;color: light-dark(rgb(103, 171, 159), rgb(58, 117, 107)); background-color: rgb(255, 255, 255);&quot;&gt;&lt;font style=&quot;&quot; face=&quot;Roboto, sans-serif&quot;&gt;&lt;span style=&quot;white-space: pre;&quot;&gt;}&lt;/span&gt;&lt;/font&gt;&lt;/span&gt;&lt;/font&gt;" style="text;strokeColor=none;fillColor=none;align=left;verticalAlign=middle;spacingLeft=4;spacingRight=4;overflow=hidden;points=[[0,0.5],[1,0.5]];portConstraint=eastwest;rotatable=0;whiteSpace=wrap;html=1;" vertex="1" parent="H4yULS8eyxQX-8BWn6bs-1">
          <mxGeometry y="720" width="476" height="30" as="geometry" />
        </mxCell>
        <mxCell id="H4yULS8eyxQX-8BWn6bs-32" value="zone_key&amp;nbsp;&lt;font style=&quot;color: rgb(223, 24, 17);&quot;&gt;[code zone commerciale]&lt;/font&gt; &lt;font style=&quot;&quot;&gt;&lt;font style=&quot;color: rgb(103, 171, 159);&quot;&gt;&lt;font&gt;{ex:&amp;nbsp;FRPP3&lt;/font&gt;&lt;/font&gt;&lt;span style=&quot;color: light-dark(rgb(103, 171, 159), rgb(58, 117, 107)); background-color: rgb(255, 255, 255);&quot;&gt;&lt;font style=&quot;&quot; face=&quot;Roboto, sans-serif&quot;&gt;&lt;span style=&quot;white-space: pre;&quot;&gt;}&lt;/span&gt;&lt;/font&gt;&lt;/span&gt;&lt;/font&gt;" style="text;strokeColor=none;fillColor=none;align=left;verticalAlign=middle;spacingLeft=4;spacingRight=4;overflow=hidden;points=[[0,0.5],[1,0.5]];portConstraint=eastwest;rotatable=0;whiteSpace=wrap;html=1;" vertex="1" parent="H4yULS8eyxQX-8BWn6bs-1">
          <mxGeometry y="750" width="476" height="30" as="geometry" />
        </mxCell>
        <mxCell id="H4yULS8eyxQX-8BWn6bs-33" value="zone_desc&amp;nbsp;&lt;font style=&quot;color: rgb(223, 24, 17);&quot;&gt;[description zone commerciale]&lt;/font&gt; &lt;font style=&quot;&quot;&gt;&lt;font style=&quot;color: rgb(103, 171, 159);&quot;&gt;&lt;font&gt;{ex:&amp;nbsp;OUEST&lt;/font&gt;&lt;/font&gt;&lt;span style=&quot;color: light-dark(rgb(103, 171, 159), rgb(58, 117, 107)); background-color: rgb(255, 255, 255);&quot;&gt;&lt;font style=&quot;&quot; face=&quot;Roboto, sans-serif&quot;&gt;&lt;span style=&quot;white-space: pre;&quot;&gt;}&lt;/span&gt;&lt;/font&gt;&lt;/span&gt;&lt;/font&gt;" style="text;strokeColor=none;fillColor=none;align=left;verticalAlign=middle;spacingLeft=4;spacingRight=4;overflow=hidden;points=[[0,0.5],[1,0.5]];portConstraint=eastwest;rotatable=0;whiteSpace=wrap;html=1;" vertex="1" parent="H4yULS8eyxQX-8BWn6bs-1">
          <mxGeometry y="780" width="476" height="30" as="geometry" />
        </mxCell>
        <mxCell id="H4yULS8eyxQX-8BWn6bs-34" value="region_key&amp;nbsp;&lt;font style=&quot;color: rgb(223, 24, 17);&quot;&gt;[code direction commerciale régionale]&lt;/font&gt; &lt;font style=&quot;&quot;&gt;&lt;font style=&quot;color: rgb(103, 171, 159);&quot;&gt;&lt;font&gt;{ex:&amp;nbsp;FRPP313&lt;/font&gt;&lt;/font&gt;&lt;span style=&quot;color: light-dark(rgb(103, 171, 159), rgb(58, 117, 107)); background-color: rgb(255, 255, 255);&quot;&gt;&lt;font style=&quot;&quot; face=&quot;Roboto, sans-serif&quot;&gt;&lt;span style=&quot;white-space: pre;&quot;&gt;}&lt;/span&gt;&lt;/font&gt;&lt;/span&gt;&lt;/font&gt;" style="text;strokeColor=none;fillColor=none;align=left;verticalAlign=middle;spacingLeft=4;spacingRight=4;overflow=hidden;points=[[0,0.5],[1,0.5]];portConstraint=eastwest;rotatable=0;whiteSpace=wrap;html=1;" vertex="1" parent="H4yULS8eyxQX-8BWn6bs-1">
          <mxGeometry y="810" width="476" height="30" as="geometry" />
        </mxCell>
        <mxCell id="H4yULS8eyxQX-8BWn6bs-63" value="region_desc&amp;nbsp;&lt;font style=&quot;color: rgb(223, 24, 17);&quot;&gt;[description direction commerciale régionale]&lt;/font&gt; &lt;font style=&quot;&quot;&gt;&lt;font style=&quot;color: rgb(103, 171, 159);&quot;&gt;&lt;font&gt;{ex:&amp;nbsp;COMPAIN DAVID&lt;/font&gt;&lt;/font&gt;&lt;span style=&quot;color: light-dark(rgb(103, 171, 159), rgb(58, 117, 107)); background-color: rgb(255, 255, 255);&quot;&gt;&lt;font style=&quot;&quot; face=&quot;Roboto, sans-serif&quot;&gt;&lt;span style=&quot;white-space: pre;&quot;&gt;}&lt;/span&gt;&lt;/font&gt;&lt;/span&gt;&lt;/font&gt;" style="text;strokeColor=none;fillColor=none;align=left;verticalAlign=middle;spacingLeft=4;spacingRight=4;overflow=hidden;points=[[0,0.5],[1,0.5]];portConstraint=eastwest;rotatable=0;whiteSpace=wrap;html=1;" vertex="1" parent="H4yULS8eyxQX-8BWn6bs-1">
          <mxGeometry y="840" width="476" height="30" as="geometry" />
        </mxCell>
        <mxCell id="H4yULS8eyxQX-8BWn6bs-64" value="latitude&amp;nbsp;&lt;font style=&quot;color: rgb(223, 24, 17);&quot;&gt;[latitude]&lt;/font&gt; &lt;font style=&quot;&quot;&gt;&lt;font style=&quot;color: rgb(103, 171, 159);&quot;&gt;&lt;font&gt;{ex:&amp;nbsp;48.926&lt;/font&gt;&lt;/font&gt;&lt;span style=&quot;color: light-dark(rgb(103, 171, 159), rgb(58, 117, 107)); background-color: rgb(255, 255, 255);&quot;&gt;&lt;font style=&quot;&quot; face=&quot;Roboto, sans-serif&quot;&gt;&lt;span style=&quot;white-space: pre;&quot;&gt;}&lt;/span&gt;&lt;/font&gt;&lt;/span&gt;&lt;/font&gt;" style="text;strokeColor=none;fillColor=none;align=left;verticalAlign=middle;spacingLeft=4;spacingRight=4;overflow=hidden;points=[[0,0.5],[1,0.5]];portConstraint=eastwest;rotatable=0;whiteSpace=wrap;html=1;" vertex="1" parent="H4yULS8eyxQX-8BWn6bs-1">
          <mxGeometry y="870" width="476" height="30" as="geometry" />
        </mxCell>
        <mxCell id="H4yULS8eyxQX-8BWn6bs-65" value="longitude&amp;nbsp;&lt;font style=&quot;color: rgb(223, 24, 17);&quot;&gt;[longitude]&lt;/font&gt; &lt;font style=&quot;&quot;&gt;&lt;font style=&quot;color: rgb(103, 171, 159);&quot;&gt;&lt;font&gt;{ex:&amp;nbsp;2.292&lt;/font&gt;&lt;/font&gt;&lt;span style=&quot;color: light-dark(rgb(103, 171, 159), rgb(58, 117, 107)); background-color: rgb(255, 255, 255);&quot;&gt;&lt;font style=&quot;&quot; face=&quot;Roboto, sans-serif&quot;&gt;&lt;span style=&quot;white-space: pre;&quot;&gt;}&lt;/span&gt;&lt;/font&gt;&lt;/span&gt;&lt;/font&gt;" style="text;strokeColor=none;fillColor=none;align=left;verticalAlign=middle;spacingLeft=4;spacingRight=4;overflow=hidden;points=[[0,0.5],[1,0.5]];portConstraint=eastwest;rotatable=0;whiteSpace=wrap;html=1;" vertex="1" parent="H4yULS8eyxQX-8BWn6bs-1">
          <mxGeometry y="900" width="476" height="30" as="geometry" />
        </mxCell>
        <mxCell id="H4yULS8eyxQX-8BWn6bs-66" value="activity_key&amp;nbsp;&lt;font style=&quot;color: rgb(223, 24, 17);&quot;&gt;[code activité]&lt;/font&gt; &lt;font style=&quot;&quot;&gt;&lt;font style=&quot;color: rgb(103, 171, 159);&quot;&gt;&lt;font&gt;{ex:&amp;nbsp;DRC&lt;/font&gt;&lt;/font&gt;&lt;span style=&quot;color: light-dark(rgb(103, 171, 159), rgb(58, 117, 107)); background-color: rgb(255, 255, 255);&quot;&gt;&lt;font style=&quot;&quot; face=&quot;Roboto, sans-serif&quot;&gt;&lt;span style=&quot;white-space: pre;&quot;&gt;}&lt;/span&gt;&lt;/font&gt;&lt;/span&gt;&lt;/font&gt;" style="text;strokeColor=none;fillColor=none;align=left;verticalAlign=middle;spacingLeft=4;spacingRight=4;overflow=hidden;points=[[0,0.5],[1,0.5]];portConstraint=eastwest;rotatable=0;whiteSpace=wrap;html=1;" vertex="1" parent="H4yULS8eyxQX-8BWn6bs-1">
          <mxGeometry y="930" width="476" height="30" as="geometry" />
        </mxCell>
        <mxCell id="H4yULS8eyxQX-8BWn6bs-67" value="activity_desc&amp;nbsp;&lt;font style=&quot;color: rgb(223, 24, 17);&quot;&gt;[description activité]&lt;/font&gt; &lt;font style=&quot;&quot;&gt;&lt;font style=&quot;color: rgb(103, 171, 159);&quot;&gt;&lt;font&gt;{ex: DRIVE PPC&lt;/font&gt;&lt;/font&gt;&lt;span style=&quot;color: light-dark(rgb(103, 171, 159), rgb(58, 117, 107)); background-color: rgb(255, 255, 255);&quot;&gt;&lt;font style=&quot;&quot; face=&quot;Roboto, sans-serif&quot;&gt;&lt;span style=&quot;white-space: pre;&quot;&gt;}&lt;/span&gt;&lt;/font&gt;&lt;/span&gt;&lt;/font&gt;" style="text;strokeColor=none;fillColor=none;align=left;verticalAlign=middle;spacingLeft=4;spacingRight=4;overflow=hidden;points=[[0,0.5],[1,0.5]];portConstraint=eastwest;rotatable=0;whiteSpace=wrap;html=1;" vertex="1" parent="H4yULS8eyxQX-8BWn6bs-1">
          <mxGeometry y="960" width="476" height="30" as="geometry" />
        </mxCell>
        <mxCell id="H4yULS8eyxQX-8BWn6bs-68" value="main_store_key&amp;nbsp;&lt;font style=&quot;color: rgb(223, 24, 17);&quot;&gt;[code magasin référent]&lt;/font&gt; &lt;font style=&quot;&quot;&gt;&lt;font style=&quot;color: rgb(103, 171, 159);&quot;&gt;&lt;font&gt;{ex:&amp;nbsp;3021520203365&lt;/font&gt;&lt;/font&gt;&lt;span style=&quot;color: light-dark(rgb(103, 171, 159), rgb(58, 117, 107)); background-color: rgb(255, 255, 255);&quot;&gt;&lt;font style=&quot;&quot; face=&quot;Roboto, sans-serif&quot;&gt;&lt;span style=&quot;white-space: pre;&quot;&gt;}&lt;/span&gt;&lt;/font&gt;&lt;/span&gt;&lt;/font&gt;" style="text;strokeColor=none;fillColor=none;align=left;verticalAlign=middle;spacingLeft=4;spacingRight=4;overflow=hidden;points=[[0,0.5],[1,0.5]];portConstraint=eastwest;rotatable=0;whiteSpace=wrap;html=1;" vertex="1" parent="H4yULS8eyxQX-8BWn6bs-1">
          <mxGeometry y="990" width="476" height="30" as="geometry" />
        </mxCell>
        <mxCell id="H4yULS8eyxQX-8BWn6bs-69" value="chain_op_key&amp;nbsp;&lt;font style=&quot;color: rgb(223, 24, 17);&quot;&gt;[code canal distribution opérationnel]&lt;/font&gt; &lt;font style=&quot;&quot;&gt;&lt;font style=&quot;color: rgb(103, 171, 159);&quot;&gt;&lt;font&gt;{ex: CRD&lt;/font&gt;&lt;/font&gt;&lt;span style=&quot;color: light-dark(rgb(103, 171, 159), rgb(58, 117, 107)); background-color: rgb(255, 255, 255);&quot;&gt;&lt;font style=&quot;&quot; face=&quot;Roboto, sans-serif&quot;&gt;&lt;span style=&quot;white-space: pre;&quot;&gt;}&lt;/span&gt;&lt;/font&gt;&lt;/span&gt;&lt;/font&gt;" style="text;strokeColor=none;fillColor=none;align=left;verticalAlign=middle;spacingLeft=4;spacingRight=4;overflow=hidden;points=[[0,0.5],[1,0.5]];portConstraint=eastwest;rotatable=0;whiteSpace=wrap;html=1;" vertex="1" parent="H4yULS8eyxQX-8BWn6bs-1">
          <mxGeometry y="1020" width="476" height="30" as="geometry" />
        </mxCell>
        <mxCell id="H4yULS8eyxQX-8BWn6bs-70" value="chain_op_desc&amp;nbsp;&lt;font style=&quot;color: rgb(223, 24, 17);&quot;&gt;[desc canal distribution opérationnel]&lt;/font&gt; &lt;font style=&quot;&quot;&gt;&lt;font style=&quot;color: rgb(103, 171, 159);&quot;&gt;&lt;font&gt;{ex: CARREFOUR DRIVE&lt;/font&gt;&lt;/font&gt;&lt;span style=&quot;color: light-dark(rgb(103, 171, 159), rgb(58, 117, 107)); background-color: rgb(255, 255, 255);&quot;&gt;&lt;font style=&quot;&quot; face=&quot;Roboto, sans-serif&quot;&gt;&lt;span style=&quot;white-space: pre;&quot;&gt;}&lt;/span&gt;&lt;/font&gt;&lt;/span&gt;&lt;/font&gt;" style="text;strokeColor=none;fillColor=none;align=left;verticalAlign=middle;spacingLeft=4;spacingRight=4;overflow=hidden;points=[[0,0.5],[1,0.5]];portConstraint=eastwest;rotatable=0;whiteSpace=wrap;html=1;" vertex="1" parent="H4yULS8eyxQX-8BWn6bs-1">
          <mxGeometry y="1050" width="476" height="30" as="geometry" />
        </mxCell>
        <mxCell id="H4yULS8eyxQX-8BWn6bs-71" value="service_count&amp;nbsp;&lt;font style=&quot;color: rgb(223, 24, 17);&quot;&gt;[nombre de service]&lt;/font&gt; &lt;font style=&quot;&quot;&gt;&lt;font style=&quot;color: rgb(103, 171, 159);&quot;&gt;&lt;font&gt;{ex: 22&lt;/font&gt;&lt;/font&gt;&lt;span style=&quot;color: light-dark(rgb(103, 171, 159), rgb(58, 117, 107)); background-color: rgb(255, 255, 255);&quot;&gt;&lt;font style=&quot;&quot; face=&quot;Roboto, sans-serif&quot;&gt;&lt;span style=&quot;white-space: pre;&quot;&gt;}&lt;/span&gt;&lt;/font&gt;&lt;/span&gt;&lt;/font&gt;" style="text;strokeColor=none;fillColor=none;align=left;verticalAlign=middle;spacingLeft=4;spacingRight=4;overflow=hidden;points=[[0,0.5],[1,0.5]];portConstraint=eastwest;rotatable=0;whiteSpace=wrap;html=1;" vertex="1" parent="H4yULS8eyxQX-8BWn6bs-1">
          <mxGeometry y="1080" width="476" height="30" as="geometry" />
        </mxCell>
        <mxCell id="H4yULS8eyxQX-8BWn6bs-72" value="drv_store_key&amp;nbsp;&lt;font style=&quot;color: rgb(223, 24, 17);&quot;&gt;[code magasin drive]&lt;/font&gt; &lt;font style=&quot;&quot;&gt;&lt;font style=&quot;color: rgb(103, 171, 159);&quot;&gt;&lt;font&gt;{ex:&amp;nbsp;3020180269568&lt;/font&gt;&lt;/font&gt;&lt;span style=&quot;color: light-dark(rgb(103, 171, 159), rgb(58, 117, 107)); background-color: rgb(255, 255, 255);&quot;&gt;&lt;font style=&quot;&quot; face=&quot;Roboto, sans-serif&quot;&gt;&lt;span style=&quot;white-space: pre;&quot;&gt;}&lt;/span&gt;&lt;/font&gt;&lt;/span&gt;&lt;/font&gt;" style="text;strokeColor=none;fillColor=none;align=left;verticalAlign=middle;spacingLeft=4;spacingRight=4;overflow=hidden;points=[[0,0.5],[1,0.5]];portConstraint=eastwest;rotatable=0;whiteSpace=wrap;html=1;" vertex="1" parent="H4yULS8eyxQX-8BWn6bs-1">
          <mxGeometry y="1110" width="476" height="30" as="geometry" />
        </mxCell>
        <mxCell id="H4yULS8eyxQX-8BWn6bs-73" value="sto_anabel_key&amp;nbsp;&lt;font style=&quot;color: rgb(223, 24, 17);&quot;&gt;[code anabel (historique magasin hyper 2000s)]&lt;/font&gt; &lt;font style=&quot;&quot;&gt;&lt;font style=&quot;color: rgb(103, 171, 159);&quot;&gt;&lt;font&gt;{ex: A4BR&lt;/font&gt;&lt;/font&gt;&lt;span style=&quot;color: light-dark(rgb(103, 171, 159), rgb(58, 117, 107)); background-color: rgb(255, 255, 255);&quot;&gt;&lt;font style=&quot;&quot; face=&quot;Roboto, sans-serif&quot;&gt;&lt;span style=&quot;white-space: pre;&quot;&gt;}&lt;/span&gt;&lt;/font&gt;&lt;/span&gt;&lt;/font&gt;" style="text;strokeColor=none;fillColor=none;align=left;verticalAlign=middle;spacingLeft=4;spacingRight=4;overflow=hidden;points=[[0,0.5],[1,0.5]];portConstraint=eastwest;rotatable=0;whiteSpace=wrap;html=1;" vertex="1" parent="H4yULS8eyxQX-8BWn6bs-1">
          <mxGeometry y="1140" width="476" height="30" as="geometry" />
        </mxCell>
        <mxCell id="H4yULS8eyxQX-8BWn6bs-74" value="competitor_key&amp;nbsp;&lt;font style=&quot;color: rgb(223, 24, 17);&quot;&gt;[code compref]&lt;/font&gt; &lt;font style=&quot;&quot;&gt;&lt;font style=&quot;color: rgb(103, 171, 159);&quot;&gt;&lt;font&gt;{ex:&amp;nbsp;39314&lt;/font&gt;&lt;/font&gt;&lt;span style=&quot;color: light-dark(rgb(103, 171, 159), rgb(58, 117, 107)); background-color: rgb(255, 255, 255);&quot;&gt;&lt;font style=&quot;&quot; face=&quot;Roboto, sans-serif&quot;&gt;&lt;span style=&quot;white-space: pre;&quot;&gt;}&lt;/span&gt;&lt;/font&gt;&lt;/span&gt;&lt;/font&gt;" style="text;strokeColor=none;fillColor=none;align=left;verticalAlign=middle;spacingLeft=4;spacingRight=4;overflow=hidden;points=[[0,0.5],[1,0.5]];portConstraint=eastwest;rotatable=0;whiteSpace=wrap;html=1;" vertex="1" parent="H4yULS8eyxQX-8BWn6bs-1">
          <mxGeometry y="1170" width="476" height="30" as="geometry" />
        </mxCell>
        <mxCell id="5FTgFw6TlE6LnQsB1mbU-1" value="vg1p-apps-optiprice-prd-a4.metier.product" style="swimlane;fontStyle=0;childLayout=stackLayout;horizontal=1;startSize=30;horizontalStack=0;resizeParent=1;resizeParentMax=0;resizeLast=0;collapsible=1;marginBottom=0;whiteSpace=wrap;html=1;fillColor=#dae8fc;strokeColor=#6c8ebf;" vertex="1" parent="1">
          <mxGeometry x="1228" y="672" width="483" height="1560" as="geometry" />
        </mxCell>
        <mxCell id="5FTgFw6TlE6LnQsB1mbU-2" value="item_key &lt;font style=&quot;color: rgb(223, 24, 17);&quot;&gt;[&lt;font style=&quot;color: rgb(223, 24, 17);&quot;&gt;EAN&lt;/font&gt;]&lt;/font&gt; &lt;font style=&quot;color: rgb(103, 171, 159);&quot;&gt;{ex:&amp;nbsp;&lt;span style=&quot;font-family: Roboto, sans-serif; white-space: pre; background-color: rgb(255, 255, 255);&quot;&gt;3701168944706}&lt;/span&gt;&lt;/font&gt;" style="text;strokeColor=none;fillColor=none;align=left;verticalAlign=middle;spacingLeft=4;spacingRight=4;overflow=hidden;points=[[0,0.5],[1,0.5]];portConstraint=eastwest;rotatable=0;whiteSpace=wrap;html=1;" vertex="1" parent="5FTgFw6TlE6LnQsB1mbU-1">
          <mxGeometry y="30" width="483" height="30" as="geometry" />
        </mxCell>
        <mxCell id="5FTgFw6TlE6LnQsB1mbU-3" value="item_desc&amp;nbsp;&lt;font style=&quot;color: rgb(223, 24, 17);&quot;&gt;[description produit]&lt;/font&gt;&amp;nbsp;&lt;font style=&quot;color: rgb(103, 171, 159);&quot;&gt;{ex:&amp;nbsp;&lt;span style=&quot;font-family: Roboto, sans-serif; white-space: pre; background-color: rgb(255, 255, 255);&quot;&gt;}&lt;/span&gt;&lt;/font&gt;" style="text;strokeColor=none;fillColor=none;align=left;verticalAlign=middle;spacingLeft=4;spacingRight=4;overflow=hidden;points=[[0,0.5],[1,0.5]];portConstraint=eastwest;rotatable=0;whiteSpace=wrap;html=1;" vertex="1" parent="5FTgFw6TlE6LnQsB1mbU-1">
          <mxGeometry y="60" width="483" height="30" as="geometry" />
        </mxCell>
        <mxCell id="5FTgFw6TlE6LnQsB1mbU-4" value="item_short_desc&amp;nbsp;&lt;font style=&quot;color: rgb(223, 24, 17);&quot;&gt;[description courte produit]&lt;/font&gt;&amp;nbsp;&lt;font style=&quot;color: rgb(103, 171, 159);&quot;&gt;{ex:&amp;nbsp;&lt;span style=&quot;font-family: Roboto, sans-serif; white-space: pre; background-color: rgb(255, 255, 255);&quot;&gt;}&lt;/span&gt;&lt;/font&gt;" style="text;strokeColor=none;fillColor=none;align=left;verticalAlign=middle;spacingLeft=4;spacingRight=4;overflow=hidden;points=[[0,0.5],[1,0.5]];portConstraint=eastwest;rotatable=0;whiteSpace=wrap;html=1;" vertex="1" parent="5FTgFw6TlE6LnQsB1mbU-1">
          <mxGeometry y="90" width="483" height="30" as="geometry" />
        </mxCell>
        <mxCell id="5FTgFw6TlE6LnQsB1mbU-5" value="prd_dwh_in_key &lt;font style=&quot;color: rgb(223, 24, 17);&quot;&gt;[code data WH ?]&lt;/font&gt; &lt;font style=&quot;color: rgb(103, 171, 159);&quot;&gt;{ex:&amp;nbsp;&lt;span style=&quot;font-family: Roboto, sans-serif; white-space: pre; background-color: rgb(255, 255, 255);&quot;&gt;7634873&lt;/span&gt;}&lt;/font&gt;" style="text;strokeColor=none;fillColor=none;align=left;verticalAlign=middle;spacingLeft=4;spacingRight=4;overflow=hidden;points=[[0,0.5],[1,0.5]];portConstraint=eastwest;rotatable=0;whiteSpace=wrap;html=1;" vertex="1" parent="5FTgFw6TlE6LnQsB1mbU-1">
          <mxGeometry y="120" width="483" height="30" as="geometry" />
        </mxCell>
        <mxCell id="5FTgFw6TlE6LnQsB1mbU-7" value="ifls_key &lt;font style=&quot;color: rgb(223, 24, 17);&quot;&gt;[code IFLS]&lt;/font&gt; &lt;font style=&quot;color: rgb(103, 171, 159);&quot;&gt;{ex:&amp;nbsp;&lt;span style=&quot;background-color: transparent;&quot;&gt;Q95629&lt;/span&gt;}&lt;/font&gt;" style="text;strokeColor=none;fillColor=none;align=left;verticalAlign=middle;spacingLeft=4;spacingRight=4;overflow=hidden;points=[[0,0.5],[1,0.5]];portConstraint=eastwest;rotatable=0;whiteSpace=wrap;html=1;" vertex="1" parent="5FTgFw6TlE6LnQsB1mbU-1">
          <mxGeometry y="150" width="483" height="30" as="geometry" />
        </mxCell>
        <mxCell id="5FTgFw6TlE6LnQsB1mbU-8" value="sector_key &lt;font style=&quot;color: rgb(223, 24, 17);&quot;&gt;[code secteur&lt;/font&gt;&lt;font style=&quot;background-color: transparent; color: rgb(223, 24, 17);&quot;&gt;]&lt;/font&gt;&lt;span style=&quot;background-color: transparent; color: light-dark(rgb(0, 0, 0), rgb(255, 255, 255));&quot;&gt; &lt;/span&gt;&lt;span style=&quot;background-color: transparent;&quot;&gt;&lt;font style=&quot;color: light-dark(rgb(103, 171, 159), rgb(255, 255, 255));&quot;&gt;{ex: 3}&lt;/font&gt;&lt;/span&gt;" style="text;strokeColor=none;fillColor=none;align=left;verticalAlign=middle;spacingLeft=4;spacingRight=4;overflow=hidden;points=[[0,0.5],[1,0.5]];portConstraint=eastwest;rotatable=0;whiteSpace=wrap;html=1;" vertex="1" parent="5FTgFw6TlE6LnQsB1mbU-1">
          <mxGeometry y="180" width="483" height="30" as="geometry" />
        </mxCell>
        <mxCell id="5FTgFw6TlE6LnQsB1mbU-9" value="sector_desc &lt;font style=&quot;color: rgb(223, 24, 17);&quot;&gt;[description secteur]&lt;/font&gt; &lt;font style=&quot;color: rgb(103, 171, 159);&quot;&gt;{ex: 3 - BAZAR}&lt;/font&gt;" style="text;strokeColor=none;fillColor=none;align=left;verticalAlign=middle;spacingLeft=4;spacingRight=4;overflow=hidden;points=[[0,0.5],[1,0.5]];portConstraint=eastwest;rotatable=0;whiteSpace=wrap;html=1;" vertex="1" parent="5FTgFw6TlE6LnQsB1mbU-1">
          <mxGeometry y="210" width="483" height="30" as="geometry" />
        </mxCell>
        <mxCell id="5FTgFw6TlE6LnQsB1mbU-10" value="department_key &lt;font style=&quot;color: rgb(223, 24, 17);&quot;&gt;[code departement]&lt;/font&gt; &lt;font style=&quot;color: rgb(103, 171, 159);&quot;&gt;{ex: 25}&lt;/font&gt;" style="text;strokeColor=none;fillColor=none;align=left;verticalAlign=middle;spacingLeft=4;spacingRight=4;overflow=hidden;points=[[0,0.5],[1,0.5]];portConstraint=eastwest;rotatable=0;whiteSpace=wrap;html=1;" vertex="1" parent="5FTgFw6TlE6LnQsB1mbU-1">
          <mxGeometry y="240" width="483" height="30" as="geometry" />
        </mxCell>
        <mxCell id="5FTgFw6TlE6LnQsB1mbU-11" value="department_desc &lt;font style=&quot;color: rgb(223, 24, 17);&quot;&gt;[description departement]&lt;/font&gt; &lt;font style=&quot;color: rgb(103, 171, 159);&quot;&gt;{ex:&amp;nbsp;25 - P.L.S.}&lt;/font&gt;" style="text;strokeColor=none;fillColor=none;align=left;verticalAlign=middle;spacingLeft=4;spacingRight=4;overflow=hidden;points=[[0,0.5],[1,0.5]];portConstraint=eastwest;rotatable=0;whiteSpace=wrap;html=1;" vertex="1" parent="5FTgFw6TlE6LnQsB1mbU-1">
          <mxGeometry y="270" width="483" height="30" as="geometry" />
        </mxCell>
        <mxCell id="5FTgFw6TlE6LnQsB1mbU-12" value="grp_class_key &lt;font style=&quot;color: rgb(223, 24, 17);&quot;&gt;[code groupe classe]&lt;/font&gt; &lt;font style=&quot;color: rgb(103, 171, 159);&quot;&gt;{ex: 314}&lt;/font&gt;" style="text;strokeColor=none;fillColor=none;align=left;verticalAlign=middle;spacingLeft=4;spacingRight=4;overflow=hidden;points=[[0,0.5],[1,0.5]];portConstraint=eastwest;rotatable=0;whiteSpace=wrap;html=1;" vertex="1" parent="5FTgFw6TlE6LnQsB1mbU-1">
          <mxGeometry y="300" width="483" height="30" as="geometry" />
        </mxCell>
        <mxCell id="5FTgFw6TlE6LnQsB1mbU-13" value="grp_class_desc &lt;font style=&quot;color: rgb(223, 24, 17);&quot;&gt;[description groupe classe]&lt;/font&gt; &lt;font style=&quot;color: rgb(103, 171, 159);&quot;&gt;{ex:&amp;nbsp;&lt;span style=&quot;font-family: Roboto, sans-serif; white-space: pre; background-color: rgb(255, 255, 255);&quot;&gt;314 - CUISINE&lt;/span&gt;}&lt;/font&gt;" style="text;strokeColor=none;fillColor=none;align=left;verticalAlign=middle;spacingLeft=4;spacingRight=4;overflow=hidden;points=[[0,0.5],[1,0.5]];portConstraint=eastwest;rotatable=0;whiteSpace=wrap;html=1;" vertex="1" parent="5FTgFw6TlE6LnQsB1mbU-1">
          <mxGeometry y="330" width="483" height="30" as="geometry" />
        </mxCell>
        <mxCell id="5FTgFw6TlE6LnQsB1mbU-14" value="class_key &lt;font style=&quot;color: rgb(223, 24, 17);&quot;&gt;[code classe]&lt;/font&gt; &lt;font style=&quot;color: rgb(103, 171, 159);&quot;&gt;{ex: 1436}&lt;/font&gt;" style="text;strokeColor=none;fillColor=none;align=left;verticalAlign=middle;spacingLeft=4;spacingRight=4;overflow=hidden;points=[[0,0.5],[1,0.5]];portConstraint=eastwest;rotatable=0;whiteSpace=wrap;html=1;" vertex="1" parent="5FTgFw6TlE6LnQsB1mbU-1">
          <mxGeometry y="360" width="483" height="30" as="geometry" />
        </mxCell>
        <mxCell id="5FTgFw6TlE6LnQsB1mbU-15" value="class_desc &lt;font style=&quot;color: rgb(223, 24, 17);&quot;&gt;[description classe]&lt;/font&gt; &lt;font style=&quot;color: rgb(103, 171, 159);&quot;&gt;{ex: 1436 - FARINES}&lt;/font&gt;" style="text;strokeColor=none;fillColor=none;align=left;verticalAlign=middle;spacingLeft=4;spacingRight=4;overflow=hidden;points=[[0,0.5],[1,0.5]];portConstraint=eastwest;rotatable=0;whiteSpace=wrap;html=1;" vertex="1" parent="5FTgFw6TlE6LnQsB1mbU-1">
          <mxGeometry y="390" width="483" height="30" as="geometry" />
        </mxCell>
        <mxCell id="5FTgFw6TlE6LnQsB1mbU-16" value="sub_class_key &lt;font style=&quot;color: rgb(223, 24, 17);&quot;&gt;[code sous-classe]&lt;/font&gt; &lt;font style=&quot;color: rgb(103, 171, 159);&quot;&gt;{ex: 21301}&lt;/font&gt;" style="text;strokeColor=none;fillColor=none;align=left;verticalAlign=middle;spacingLeft=4;spacingRight=4;overflow=hidden;points=[[0,0.5],[1,0.5]];portConstraint=eastwest;rotatable=0;whiteSpace=wrap;html=1;" vertex="1" parent="5FTgFw6TlE6LnQsB1mbU-1">
          <mxGeometry y="420" width="483" height="30" as="geometry" />
        </mxCell>
        <mxCell id="5FTgFw6TlE6LnQsB1mbU-17" value="sub_class_desc &lt;font style=&quot;color: rgb(223, 24, 17);&quot;&gt;[description sous classe]&lt;/font&gt; &lt;font style=&quot;color: rgb(103, 171, 159);&quot;&gt;{ex:&amp;nbsp;21301 - CREVETTE CUITE LS}&lt;/font&gt;" style="text;strokeColor=none;fillColor=none;align=left;verticalAlign=middle;spacingLeft=4;spacingRight=4;overflow=hidden;points=[[0,0.5],[1,0.5]];portConstraint=eastwest;rotatable=0;whiteSpace=wrap;html=1;" vertex="1" parent="5FTgFw6TlE6LnQsB1mbU-1">
          <mxGeometry y="450" width="483" height="30" as="geometry" />
        </mxCell>
        <mxCell id="LsKnMRMvSbf-FJd72gIK-1" value="ub_key &lt;font style=&quot;color: rgb(223, 24, 17);&quot;&gt;[unité besoin]&lt;/font&gt; &lt;font style=&quot;color: rgb(103, 171, 159);&quot;&gt;{ex:&amp;nbsp;&lt;span style=&quot;font-family: Roboto, sans-serif; white-space: pre; background-color: rgb(255, 255, 255);&quot;&gt;1033101&lt;/span&gt;}&lt;/font&gt;" style="text;strokeColor=none;fillColor=none;align=left;verticalAlign=middle;spacingLeft=4;spacingRight=4;overflow=hidden;points=[[0,0.5],[1,0.5]];portConstraint=eastwest;rotatable=0;whiteSpace=wrap;html=1;" vertex="1" parent="5FTgFw6TlE6LnQsB1mbU-1">
          <mxGeometry y="480" width="483" height="30" as="geometry" />
        </mxCell>
        <mxCell id="LsKnMRMvSbf-FJd72gIK-2" value="ub_desc &lt;font style=&quot;color: rgb(223, 24, 17);&quot;&gt;[description unité besoin]&lt;/font&gt; &lt;font style=&quot;color: rgb(103, 171, 159);&quot;&gt;{ex:&amp;nbsp;&lt;span style=&quot;background-color: transparent;&quot;&gt;1033101 - BEAUJOLAIS ROUGE&lt;/span&gt;}&lt;/font&gt;" style="text;strokeColor=none;fillColor=none;align=left;verticalAlign=middle;spacingLeft=4;spacingRight=4;overflow=hidden;points=[[0,0.5],[1,0.5]];portConstraint=eastwest;rotatable=0;whiteSpace=wrap;html=1;" vertex="1" parent="5FTgFw6TlE6LnQsB1mbU-1">
          <mxGeometry y="510" width="483" height="30" as="geometry" />
        </mxCell>
        <mxCell id="1Ya_TMSbr1Y6pR6vE997-1" value="brand_key &lt;font style=&quot;color: rgb(223, 24, 17);&quot;&gt;[code marque]&lt;/font&gt; &lt;font style=&quot;color: rgb(103, 171, 159);&quot;&gt;{ex:&amp;nbsp;&lt;span style=&quot;background-color: transparent;&quot;&gt;LE PT MARS&lt;/span&gt;}&lt;/font&gt;" style="text;strokeColor=none;fillColor=none;align=left;verticalAlign=middle;spacingLeft=4;spacingRight=4;overflow=hidden;points=[[0,0.5],[1,0.5]];portConstraint=eastwest;rotatable=0;whiteSpace=wrap;html=1;" vertex="1" parent="5FTgFw6TlE6LnQsB1mbU-1">
          <mxGeometry y="540" width="483" height="30" as="geometry" />
        </mxCell>
        <mxCell id="1Ya_TMSbr1Y6pR6vE997-2" value="&lt;div&gt;brand_desc&lt;span style=&quot;background-color: transparent; color: light-dark(rgb(0, 0, 0), rgb(255, 255, 255));&quot;&gt;&amp;nbsp;&lt;/span&gt;&lt;span style=&quot;background-color: transparent;&quot;&gt;&lt;font style=&quot;color: light-dark(rgb(223, 24, 17), rgb(255, 255, 255));&quot;&gt;[description marque]&lt;/font&gt;&lt;/span&gt;&lt;span style=&quot;background-color: transparent; color: light-dark(rgb(0, 0, 0), rgb(255, 255, 255));&quot;&gt; &lt;/span&gt;&lt;font style=&quot;color: rgb(103, 171, 159);&quot;&gt;&lt;span style=&quot;background-color: transparent;&quot;&gt;{ex:&amp;nbsp;&lt;/span&gt;&lt;span style=&quot;background-color: transparent;&quot;&gt;LE PT.MARSEILLAIS&lt;/span&gt;&lt;span style=&quot;background-color: transparent;&quot;&gt;}&lt;/span&gt;&lt;/font&gt;&lt;/div&gt;" style="text;strokeColor=none;fillColor=none;align=left;verticalAlign=middle;spacingLeft=4;spacingRight=4;overflow=hidden;points=[[0,0.5],[1,0.5]];portConstraint=eastwest;rotatable=0;whiteSpace=wrap;html=1;" vertex="1" parent="5FTgFw6TlE6LnQsB1mbU-1">
          <mxGeometry y="570" width="483" height="30" as="geometry" />
        </mxCell>
        <mxCell id="1Ya_TMSbr1Y6pR6vE997-3" value="&lt;div&gt;brand_owner_key&amp;nbsp;&lt;span style=&quot;background-color: transparent;&quot;&gt;&lt;font style=&quot;color: light-dark(rgb(223, 24, 17), rgb(255, 255, 255));&quot;&gt;[code propriétaire marque]&lt;/font&gt;&lt;/span&gt;&lt;span style=&quot;background-color: transparent; color: light-dark(rgb(0, 0, 0), rgb(255, 255, 255));&quot;&gt; &lt;/span&gt;&lt;font style=&quot;color: light-dark(rgb(103, 171, 159), rgb(255, 255, 255));&quot;&gt;&lt;span style=&quot;background-color: transparent;&quot;&gt;{ex:&amp;nbsp;&lt;/span&gt;&lt;span style=&quot;background-color: transparent;&quot;&gt;031085&lt;/span&gt;&lt;span style=&quot;background-color: transparent;&quot;&gt;}&lt;/span&gt;&lt;/font&gt;&lt;/div&gt;" style="text;strokeColor=none;fillColor=none;align=left;verticalAlign=middle;spacingLeft=4;spacingRight=4;overflow=hidden;points=[[0,0.5],[1,0.5]];portConstraint=eastwest;rotatable=0;whiteSpace=wrap;html=1;" vertex="1" parent="5FTgFw6TlE6LnQsB1mbU-1">
          <mxGeometry y="600" width="483" height="30" as="geometry" />
        </mxCell>
        <mxCell id="1Ya_TMSbr1Y6pR6vE997-4" value="&lt;div&gt;brand_owner_desc&amp;nbsp;&lt;span style=&quot;background-color: transparent;&quot;&gt;&lt;font style=&quot;color: light-dark(rgb(223, 24, 17), rgb(255, 255, 255));&quot;&gt;[description propriétaire]&lt;/font&gt;&lt;/span&gt;&lt;span style=&quot;background-color: transparent; color: light-dark(rgb(0, 0, 0), rgb(255, 255, 255));&quot;&gt; &lt;/span&gt;&lt;font style=&quot;color: rgb(103, 171, 159);&quot;&gt;&lt;span style=&quot;background-color: transparent;&quot;&gt;{ex:&amp;nbsp;&lt;/span&gt;&lt;span style=&quot;background-color: transparent;&quot;&gt;031085&lt;/span&gt;&lt;span style=&quot;background-color: transparent;&quot;&gt;}&lt;/span&gt;&lt;/font&gt;&lt;/div&gt;" style="text;strokeColor=none;fillColor=none;align=left;verticalAlign=middle;spacingLeft=4;spacingRight=4;overflow=hidden;points=[[0,0.5],[1,0.5]];portConstraint=eastwest;rotatable=0;whiteSpace=wrap;html=1;" vertex="1" parent="5FTgFw6TlE6LnQsB1mbU-1">
          <mxGeometry y="630" width="483" height="30" as="geometry" />
        </mxCell>
        <mxCell id="1Ya_TMSbr1Y6pR6vE997-5" value="&lt;div&gt;brand_type_key&amp;nbsp;&lt;span style=&quot;background-color: transparent;&quot;&gt;&lt;font style=&quot;color: light-dark(rgb(223, 24, 17), rgb(255, 255, 255));&quot;&gt;[code type marque]&lt;/font&gt;&lt;/span&gt;&lt;span style=&quot;background-color: transparent; color: light-dark(rgb(0, 0, 0), rgb(255, 255, 255));&quot;&gt; &lt;/span&gt;&lt;font style=&quot;color: rgb(103, 171, 159);&quot;&gt;&lt;span style=&quot;background-color: transparent;&quot;&gt;{ex:&amp;nbsp;&lt;/span&gt;&lt;span style=&quot;background-color: transparent;&quot;&gt;N&lt;/span&gt;&lt;span style=&quot;background-color: transparent;&quot;&gt;}&lt;/span&gt;&lt;/font&gt;&lt;/div&gt;" style="text;strokeColor=none;fillColor=none;align=left;verticalAlign=middle;spacingLeft=4;spacingRight=4;overflow=hidden;points=[[0,0.5],[1,0.5]];portConstraint=eastwest;rotatable=0;whiteSpace=wrap;html=1;" vertex="1" parent="5FTgFw6TlE6LnQsB1mbU-1">
          <mxGeometry y="660" width="483" height="30" as="geometry" />
        </mxCell>
        <mxCell id="1Ya_TMSbr1Y6pR6vE997-6" value="&lt;div&gt;brand_type_desc&amp;nbsp;&lt;span style=&quot;background-color: transparent;&quot;&gt;&lt;font style=&quot;color: light-dark(rgb(223, 24, 17), rgb(255, 255, 255));&quot;&gt;[type marque]&lt;/font&gt;&lt;/span&gt;&lt;span style=&quot;background-color: transparent; color: light-dark(rgb(0, 0, 0), rgb(255, 255, 255));&quot;&gt; &lt;/span&gt;&lt;font style=&quot;color: rgb(103, 171, 159);&quot;&gt;&lt;span style=&quot;background-color: transparent;&quot;&gt;{ex:&amp;nbsp;&lt;/span&gt;&lt;span style=&quot;background-color: transparent;&quot;&gt;Marque Nationale&lt;/span&gt;&lt;span style=&quot;background-color: transparent;&quot;&gt;}&lt;/span&gt;&lt;/font&gt;&lt;/div&gt;" style="text;strokeColor=none;fillColor=none;align=left;verticalAlign=middle;spacingLeft=4;spacingRight=4;overflow=hidden;points=[[0,0.5],[1,0.5]];portConstraint=eastwest;rotatable=0;whiteSpace=wrap;html=1;" vertex="1" parent="5FTgFw6TlE6LnQsB1mbU-1">
          <mxGeometry y="690" width="483" height="30" as="geometry" />
        </mxCell>
        <mxCell id="1Ya_TMSbr1Y6pR6vE997-7" value="&lt;div&gt;supplier_key&amp;nbsp;&lt;span style=&quot;background-color: transparent;&quot;&gt;&lt;font style=&quot;color: light-dark(rgb(223, 24, 17), rgb(255, 255, 255));&quot;&gt;[code fournisseur]&lt;/font&gt;&lt;/span&gt;&lt;span style=&quot;background-color: transparent; color: light-dark(rgb(0, 0, 0), rgb(255, 255, 255));&quot;&gt; &lt;/span&gt;&lt;font style=&quot;color: light-dark(rgb(103, 171, 159), rgb(255, 255, 255));&quot;&gt;&lt;span style=&quot;background-color: transparent;&quot;&gt;{ex:&amp;nbsp;&lt;/span&gt;&lt;span style=&quot;background-color: transparent;&quot;&gt;}&lt;/span&gt;&lt;/font&gt;&lt;/div&gt;" style="text;strokeColor=none;fillColor=none;align=left;verticalAlign=middle;spacingLeft=4;spacingRight=4;overflow=hidden;points=[[0,0.5],[1,0.5]];portConstraint=eastwest;rotatable=0;whiteSpace=wrap;html=1;" vertex="1" parent="5FTgFw6TlE6LnQsB1mbU-1">
          <mxGeometry y="720" width="483" height="30" as="geometry" />
        </mxCell>
        <mxCell id="1Ya_TMSbr1Y6pR6vE997-8" value="&lt;div&gt;supplier_desc&amp;nbsp;&lt;span style=&quot;background-color: transparent;&quot;&gt;&lt;font style=&quot;color: light-dark(rgb(223, 24, 17), rgb(255, 255, 255));&quot;&gt;[description fournisseur]&lt;/font&gt;&lt;/span&gt;&lt;span style=&quot;background-color: transparent; color: light-dark(rgb(0, 0, 0), rgb(255, 255, 255));&quot;&gt; &lt;/span&gt;&lt;font style=&quot;color: light-dark(rgb(103, 171, 159), rgb(255, 255, 255));&quot;&gt;&lt;span style=&quot;background-color: transparent;&quot;&gt;{ex: Unilever France&lt;/span&gt;&lt;span style=&quot;background-color: transparent;&quot;&gt;}&lt;/span&gt;&lt;/font&gt;&lt;/div&gt;" style="text;strokeColor=none;fillColor=none;align=left;verticalAlign=middle;spacingLeft=4;spacingRight=4;overflow=hidden;points=[[0,0.5],[1,0.5]];portConstraint=eastwest;rotatable=0;whiteSpace=wrap;html=1;" vertex="1" parent="5FTgFw6TlE6LnQsB1mbU-1">
          <mxGeometry y="750" width="483" height="30" as="geometry" />
        </mxCell>
        <mxCell id="1Ya_TMSbr1Y6pR6vE997-10" value="&lt;div&gt;dispo_key&amp;nbsp;&lt;span style=&quot;background-color: transparent;&quot;&gt;&lt;font style=&quot;color: light-dark(rgb(223, 24, 17), rgb(255, 255, 255));&quot;&gt;[code disponibilité]&lt;/font&gt;&lt;/span&gt;&lt;span style=&quot;background-color: transparent; color: light-dark(rgb(0, 0, 0), rgb(255, 255, 255));&quot;&gt; &lt;/span&gt;&lt;font style=&quot;color: light-dark(rgb(103, 171, 159), rgb(255, 255, 255));&quot;&gt;&lt;span style=&quot;background-color: transparent;&quot;&gt;{ex: P&lt;/span&gt;&lt;span style=&quot;background-color: transparent;&quot;&gt;}&lt;/span&gt;&lt;/font&gt;&lt;/div&gt;" style="text;strokeColor=none;fillColor=none;align=left;verticalAlign=middle;spacingLeft=4;spacingRight=4;overflow=hidden;points=[[0,0.5],[1,0.5]];portConstraint=eastwest;rotatable=0;whiteSpace=wrap;html=1;" vertex="1" parent="5FTgFw6TlE6LnQsB1mbU-1">
          <mxGeometry y="780" width="483" height="30" as="geometry" />
        </mxCell>
        <mxCell id="1Ya_TMSbr1Y6pR6vE997-11" value="&lt;div&gt;dispo_desc&amp;nbsp;&lt;span style=&quot;background-color: transparent;&quot;&gt;&lt;font style=&quot;color: light-dark(rgb(223, 24, 17), rgb(255, 255, 255));&quot;&gt;[description disponibilité]&lt;/font&gt;&lt;/span&gt;&lt;span style=&quot;background-color: transparent; color: light-dark(rgb(0, 0, 0), rgb(255, 255, 255));&quot;&gt; &lt;/span&gt;&lt;font style=&quot;color: light-dark(rgb(103, 171, 159), rgb(255, 255, 255));&quot;&gt;&lt;span style=&quot;background-color: transparent;&quot;&gt;{ex: PERMANENT&lt;/span&gt;&lt;span style=&quot;background-color: transparent;&quot;&gt;}&lt;/span&gt;&lt;/font&gt;&lt;/div&gt;" style="text;strokeColor=none;fillColor=none;align=left;verticalAlign=middle;spacingLeft=4;spacingRight=4;overflow=hidden;points=[[0,0.5],[1,0.5]];portConstraint=eastwest;rotatable=0;whiteSpace=wrap;html=1;" vertex="1" parent="5FTgFw6TlE6LnQsB1mbU-1">
          <mxGeometry y="810" width="483" height="30" as="geometry" />
        </mxCell>
        <mxCell id="1Ya_TMSbr1Y6pR6vE997-16" value="&lt;div&gt;prd_capa_desc&amp;nbsp;&lt;span style=&quot;background-color: transparent;&quot;&gt;&lt;font style=&quot;color: light-dark(rgb(223, 24, 17), rgb(255, 255, 255));&quot;&gt;[unité de besoin]&lt;/font&gt;&lt;/span&gt;&lt;span style=&quot;background-color: transparent; color: light-dark(rgb(0, 0, 0), rgb(255, 255, 255));&quot;&gt; &lt;/span&gt;&lt;font style=&quot;color: light-dark(rgb(103, 171, 159), rgb(255, 255, 255));&quot;&gt;&lt;span style=&quot;background-color: transparent;&quot;&gt;{ex:&amp;nbsp;&lt;/span&gt;&lt;/font&gt;&lt;span style=&quot;background-color: transparent;&quot;&gt;&lt;font color=&quot;#67ab9f&quot;&gt;NOMBRE D&#39;UNITES}&lt;/font&gt;&lt;/span&gt;&lt;span style=&quot;color: light-dark(rgb(103, 171, 159), rgb(255, 255, 255)); background-color: transparent;&quot;&gt;&amp;nbsp;{ex:&amp;nbsp;&lt;/span&gt;&lt;span style=&quot;background-color: transparent;&quot;&gt;&lt;font color=&quot;#67ab9f&quot;&gt;LITRE&lt;/font&gt;&lt;/span&gt;&lt;span style=&quot;background-color: transparent; color: light-dark(rgb(103, 171, 159), rgb(255, 255, 255));&quot;&gt;}&lt;/span&gt;&lt;/div&gt;" style="text;strokeColor=none;fillColor=none;align=left;verticalAlign=middle;spacingLeft=4;spacingRight=4;overflow=hidden;points=[[0,0.5],[1,0.5]];portConstraint=eastwest;rotatable=0;whiteSpace=wrap;html=1;" vertex="1" parent="5FTgFw6TlE6LnQsB1mbU-1">
          <mxGeometry y="840" width="483" height="30" as="geometry" />
        </mxCell>
        <mxCell id="1Ya_TMSbr1Y6pR6vE997-17" value="&lt;div&gt;prd_capa_type&amp;nbsp;&lt;span style=&quot;background-color: transparent;&quot;&gt;&lt;font style=&quot;color: light-dark(rgb(223, 24, 17), rgb(255, 255, 255));&quot;&gt;[unité de besoin abréviation]&lt;/font&gt;&lt;/span&gt;&lt;span style=&quot;background-color: transparent; color: light-dark(rgb(0, 0, 0), rgb(255, 255, 255));&quot;&gt; &lt;/span&gt;&lt;font style=&quot;color: light-dark(rgb(103, 171, 159), rgb(255, 255, 255));&quot;&gt;&lt;span style=&quot;background-color: transparent;&quot;&gt;{ex: U} {ex: L&lt;/span&gt;&lt;span style=&quot;background-color: transparent;&quot;&gt;}&lt;/span&gt;&lt;/font&gt;&lt;/div&gt;" style="text;strokeColor=none;fillColor=none;align=left;verticalAlign=middle;spacingLeft=4;spacingRight=4;overflow=hidden;points=[[0,0.5],[1,0.5]];portConstraint=eastwest;rotatable=0;whiteSpace=wrap;html=1;" vertex="1" parent="5FTgFw6TlE6LnQsB1mbU-1">
          <mxGeometry y="870" width="483" height="30" as="geometry" />
        </mxCell>
        <mxCell id="1Ya_TMSbr1Y6pR6vE997-18" value="&lt;div&gt;&lt;span style=&quot;background-color: transparent;&quot;&gt;&lt;font style=&quot;&quot;&gt;prd_capa_volume&amp;nbsp;&lt;/font&gt;&lt;font style=&quot;color: light-dark(rgb(223, 24, 17), rgb(255, 255, 255));&quot;&gt;[nombre unité besoin]&lt;/font&gt;&lt;/span&gt;&lt;span style=&quot;background-color: transparent; color: light-dark(rgb(0, 0, 0), rgb(255, 255, 255));&quot;&gt; &lt;/span&gt;&lt;font style=&quot;color: light-dark(rgb(103, 171, 159), rgb(255, 255, 255));&quot;&gt;&lt;span style=&quot;background-color: transparent;&quot;&gt;{ex: 3.0}&amp;nbsp;&lt;/span&gt;&lt;/font&gt;&lt;/div&gt;" style="text;strokeColor=none;fillColor=none;align=left;verticalAlign=middle;spacingLeft=4;spacingRight=4;overflow=hidden;points=[[0,0.5],[1,0.5]];portConstraint=eastwest;rotatable=0;whiteSpace=wrap;html=1;" vertex="1" parent="5FTgFw6TlE6LnQsB1mbU-1">
          <mxGeometry y="900" width="483" height="30" as="geometry" />
        </mxCell>
        <mxCell id="1Ya_TMSbr1Y6pR6vE997-19" value="&lt;div&gt;&lt;span style=&quot;background-color: transparent;&quot;&gt;&lt;font style=&quot;&quot;&gt;prd_orig_op_desc&amp;nbsp;&lt;/font&gt;&lt;font style=&quot;color: light-dark(rgb(223, 24, 17), rgb(255, 255, 255));&quot;&gt;[pays d&#39;origine]&lt;/font&gt;&lt;/span&gt;&lt;span style=&quot;background-color: transparent; color: light-dark(rgb(0, 0, 0), rgb(255, 255, 255));&quot;&gt; &lt;/span&gt;&lt;font style=&quot;color: light-dark(rgb(103, 171, 159), rgb(255, 255, 255));&quot;&gt;&lt;span style=&quot;background-color: transparent;&quot;&gt;{ex: FRANCE}&amp;nbsp;&lt;/span&gt;&lt;/font&gt;&lt;/div&gt;" style="text;strokeColor=none;fillColor=none;align=left;verticalAlign=middle;spacingLeft=4;spacingRight=4;overflow=hidden;points=[[0,0.5],[1,0.5]];portConstraint=eastwest;rotatable=0;whiteSpace=wrap;html=1;" vertex="1" parent="5FTgFw6TlE6LnQsB1mbU-1">
          <mxGeometry y="930" width="483" height="30" as="geometry" />
        </mxCell>
        <mxCell id="1Ya_TMSbr1Y6pR6vE997-21" value="&lt;div&gt;&lt;span style=&quot;background-color: transparent;&quot;&gt;&lt;font style=&quot;&quot;&gt;prd_pack_length&amp;nbsp;&lt;/font&gt;&lt;font style=&quot;color: light-dark(rgb(223, 24, 17), rgb(255, 255, 255));&quot;&gt;[longueur]&lt;/font&gt;&lt;/span&gt;&lt;span style=&quot;background-color: transparent; color: light-dark(rgb(0, 0, 0), rgb(255, 255, 255));&quot;&gt; &lt;/span&gt;&lt;font style=&quot;color: light-dark(rgb(103, 171, 159), rgb(255, 255, 255));&quot;&gt;&lt;span style=&quot;background-color: transparent;&quot;&gt;{ex: 410.0}&amp;nbsp;&lt;/span&gt;&lt;/font&gt;&lt;/div&gt;" style="text;strokeColor=none;fillColor=none;align=left;verticalAlign=middle;spacingLeft=4;spacingRight=4;overflow=hidden;points=[[0,0.5],[1,0.5]];portConstraint=eastwest;rotatable=0;whiteSpace=wrap;html=1;" vertex="1" parent="5FTgFw6TlE6LnQsB1mbU-1">
          <mxGeometry y="960" width="483" height="30" as="geometry" />
        </mxCell>
        <mxCell id="1Ya_TMSbr1Y6pR6vE997-22" value="&lt;div&gt;&lt;span style=&quot;background-color: transparent;&quot;&gt;&lt;font style=&quot;&quot;&gt;prd_pack_width&amp;nbsp;&lt;/font&gt;&lt;font style=&quot;color: light-dark(rgb(223, 24, 17), rgb(255, 255, 255));&quot;&gt;[largeur]&lt;/font&gt;&lt;/span&gt;&lt;span style=&quot;background-color: transparent; color: light-dark(rgb(0, 0, 0), rgb(255, 255, 255));&quot;&gt; &lt;/span&gt;&lt;font style=&quot;color: light-dark(rgb(103, 171, 159), rgb(255, 255, 255));&quot;&gt;&lt;span style=&quot;background-color: transparent;&quot;&gt;{ex: 320.0}&amp;nbsp;&lt;/span&gt;&lt;/font&gt;&lt;/div&gt;" style="text;strokeColor=none;fillColor=none;align=left;verticalAlign=middle;spacingLeft=4;spacingRight=4;overflow=hidden;points=[[0,0.5],[1,0.5]];portConstraint=eastwest;rotatable=0;whiteSpace=wrap;html=1;" vertex="1" parent="5FTgFw6TlE6LnQsB1mbU-1">
          <mxGeometry y="990" width="483" height="30" as="geometry" />
        </mxCell>
        <mxCell id="1Ya_TMSbr1Y6pR6vE997-20" value="&lt;div&gt;&lt;span style=&quot;background-color: transparent;&quot;&gt;&lt;font style=&quot;&quot;&gt;prd_pack_height&amp;nbsp;&lt;/font&gt;&lt;font style=&quot;color: light-dark(rgb(223, 24, 17), rgb(255, 255, 255));&quot;&gt;[hauteur]&lt;/font&gt;&lt;/span&gt;&lt;span style=&quot;background-color: transparent; color: light-dark(rgb(0, 0, 0), rgb(255, 255, 255));&quot;&gt; &lt;/span&gt;&lt;font style=&quot;color: light-dark(rgb(103, 171, 159), rgb(255, 255, 255));&quot;&gt;&lt;span style=&quot;background-color: transparent;&quot;&gt;{ex: 1560.0}&amp;nbsp;&lt;/span&gt;&lt;/font&gt;&lt;/div&gt;" style="text;strokeColor=none;fillColor=none;align=left;verticalAlign=middle;spacingLeft=4;spacingRight=4;overflow=hidden;points=[[0,0.5],[1,0.5]];portConstraint=eastwest;rotatable=0;whiteSpace=wrap;html=1;" vertex="1" parent="5FTgFw6TlE6LnQsB1mbU-1">
          <mxGeometry y="1020" width="483" height="30" as="geometry" />
        </mxCell>
        <mxCell id="1Ya_TMSbr1Y6pR6vE997-23" value="&lt;div&gt;&lt;span style=&quot;background-color: transparent;&quot;&gt;&lt;font style=&quot;&quot;&gt;prd_pack_weight&amp;nbsp;&lt;/font&gt;&lt;font style=&quot;color: light-dark(rgb(223, 24, 17), rgb(255, 255, 255));&quot;&gt;[poids]&lt;/font&gt;&lt;/span&gt;&lt;span style=&quot;background-color: transparent; color: light-dark(rgb(0, 0, 0), rgb(255, 255, 255));&quot;&gt; &lt;/span&gt;&lt;font style=&quot;color: light-dark(rgb(103, 171, 159), rgb(255, 255, 255));&quot;&gt;&lt;span style=&quot;background-color: transparent;&quot;&gt;{ex: 16753.0}&amp;nbsp;&lt;/span&gt;&lt;/font&gt;&lt;/div&gt;" style="text;strokeColor=none;fillColor=none;align=left;verticalAlign=middle;spacingLeft=4;spacingRight=4;overflow=hidden;points=[[0,0.5],[1,0.5]];portConstraint=eastwest;rotatable=0;whiteSpace=wrap;html=1;" vertex="1" parent="5FTgFw6TlE6LnQsB1mbU-1">
          <mxGeometry y="1050" width="483" height="30" as="geometry" />
        </mxCell>
        <mxCell id="1Ya_TMSbr1Y6pR6vE997-15" value="&lt;div&gt;flag_bio&amp;nbsp;&lt;span style=&quot;background-color: transparent;&quot;&gt;&lt;font style=&quot;color: light-dark(rgb(223, 24, 17), rgb(255, 255, 255));&quot;&gt;[flag bio]&lt;/font&gt;&lt;/span&gt;&lt;span style=&quot;background-color: transparent; color: light-dark(rgb(0, 0, 0), rgb(255, 255, 255));&quot;&gt; &lt;/span&gt;&lt;font style=&quot;color: light-dark(rgb(103, 171, 159), rgb(255, 255, 255));&quot;&gt;&lt;span style=&quot;background-color: transparent;&quot;&gt;{ex: true&lt;/span&gt;&lt;span style=&quot;background-color: transparent;&quot;&gt;}&lt;/span&gt;&lt;/font&gt;&lt;/div&gt;" style="text;strokeColor=none;fillColor=none;align=left;verticalAlign=middle;spacingLeft=4;spacingRight=4;overflow=hidden;points=[[0,0.5],[1,0.5]];portConstraint=eastwest;rotatable=0;whiteSpace=wrap;html=1;" vertex="1" parent="5FTgFw6TlE6LnQsB1mbU-1">
          <mxGeometry y="1080" width="483" height="30" as="geometry" />
        </mxCell>
        <mxCell id="1Ya_TMSbr1Y6pR6vE997-14" value="&lt;div&gt;vat_pct&amp;nbsp;&lt;span style=&quot;background-color: transparent;&quot;&gt;&lt;font style=&quot;color: light-dark(rgb(223, 24, 17), rgb(255, 255, 255));&quot;&gt;[TVA]&lt;/font&gt;&lt;/span&gt;&lt;span style=&quot;background-color: transparent; color: light-dark(rgb(0, 0, 0), rgb(255, 255, 255));&quot;&gt; &lt;/span&gt;&lt;font style=&quot;color: light-dark(rgb(103, 171, 159), rgb(255, 255, 255));&quot;&gt;&lt;span style=&quot;background-color: transparent;&quot;&gt;{ex: 20.0}&lt;/span&gt;&lt;/font&gt;&lt;/div&gt;" style="text;strokeColor=none;fillColor=none;align=left;verticalAlign=middle;spacingLeft=4;spacingRight=4;overflow=hidden;points=[[0,0.5],[1,0.5]];portConstraint=eastwest;rotatable=0;whiteSpace=wrap;html=1;" vertex="1" parent="5FTgFw6TlE6LnQsB1mbU-1">
          <mxGeometry y="1110" width="483" height="30" as="geometry" />
        </mxCell>
        <mxCell id="1Ya_TMSbr1Y6pR6vE997-13" value="&lt;div&gt;ecoemb&amp;nbsp;&lt;span style=&quot;background-color: transparent;&quot;&gt;&lt;font style=&quot;color: light-dark(rgb(223, 24, 17), rgb(255, 255, 255));&quot;&gt;[taxe éco emballage]&lt;/font&gt;&lt;/span&gt;&lt;span style=&quot;background-color: transparent; color: light-dark(rgb(0, 0, 0), rgb(255, 255, 255));&quot;&gt; &lt;/span&gt;&lt;font style=&quot;&quot;&gt;&lt;span style=&quot;color: light-dark(rgb(103, 171, 159), rgb(255, 255, 255)); background-color: transparent;&quot;&gt;{ex:&amp;nbsp;&lt;/span&gt;&lt;span style=&quot;background-color: transparent;&quot;&gt;&lt;font color=&quot;#67ab9f&quot;&gt;0.0323}&lt;/font&gt;&lt;font color=&quot;rgba(0, 0, 0, 0)&quot;&gt;}&lt;/font&gt;&lt;/span&gt;&lt;/font&gt;&lt;/div&gt;" style="text;strokeColor=none;fillColor=none;align=left;verticalAlign=middle;spacingLeft=4;spacingRight=4;overflow=hidden;points=[[0,0.5],[1,0.5]];portConstraint=eastwest;rotatable=0;whiteSpace=wrap;html=1;" vertex="1" parent="5FTgFw6TlE6LnQsB1mbU-1">
          <mxGeometry y="1140" width="483" height="30" as="geometry" />
        </mxCell>
        <mxCell id="1Ya_TMSbr1Y6pR6vE997-24" value="&lt;div&gt;active_sto_nbr&amp;nbsp;&lt;span style=&quot;background-color: transparent;&quot;&gt;&lt;font style=&quot;color: light-dark(rgb(223, 24, 17), rgb(255, 255, 255));&quot;&gt;[active store n°]&lt;/font&gt;&lt;/span&gt;&lt;span style=&quot;background-color: transparent; color: light-dark(rgb(0, 0, 0), rgb(255, 255, 255));&quot;&gt; &lt;/span&gt;&lt;font style=&quot;&quot;&gt;&lt;span style=&quot;color: light-dark(rgb(103, 171, 159), rgb(255, 255, 255)); background-color: transparent;&quot;&gt;{ex:&amp;nbsp;&lt;/span&gt;&lt;span style=&quot;background-color: transparent;&quot;&gt;&lt;font color=&quot;#67ab9f&quot;&gt;245.0&lt;/font&gt;&lt;/span&gt;&lt;span style=&quot;background-color: transparent;&quot;&gt;&lt;font color=&quot;#67ab9f&quot;&gt;}&lt;/font&gt;&lt;/span&gt;&lt;/font&gt;&lt;/div&gt;" style="text;strokeColor=none;fillColor=none;align=left;verticalAlign=middle;spacingLeft=4;spacingRight=4;overflow=hidden;points=[[0,0.5],[1,0.5]];portConstraint=eastwest;rotatable=0;whiteSpace=wrap;html=1;" vertex="1" parent="5FTgFw6TlE6LnQsB1mbU-1">
          <mxGeometry y="1170" width="483" height="30" as="geometry" />
        </mxCell>
        <mxCell id="1Ya_TMSbr1Y6pR6vE997-25" value="&lt;div&gt;ASSORTIMENTS&lt;/div&gt;" style="text;strokeColor=none;fillColor=none;align=left;verticalAlign=middle;spacingLeft=4;spacingRight=4;overflow=hidden;points=[[0,0.5],[1,0.5]];portConstraint=eastwest;rotatable=0;whiteSpace=wrap;html=1;" vertex="1" parent="5FTgFw6TlE6LnQsB1mbU-1">
          <mxGeometry y="1200" width="483" height="30" as="geometry" />
        </mxCell>
        <mxCell id="1Ya_TMSbr1Y6pR6vE997-26" value="&lt;div&gt;&lt;span style=&quot;background-color: transparent;&quot;&gt;&lt;font style=&quot;&quot;&gt;sensitivity_key&amp;nbsp;&lt;/font&gt;&lt;font style=&quot;color: light-dark(rgb(223, 24, 17), rgb(255, 255, 255));&quot;&gt;[sensibilité]&lt;/font&gt;&lt;/span&gt;&lt;span style=&quot;background-color: transparent; color: light-dark(rgb(0, 0, 0), rgb(255, 255, 255));&quot;&gt; &lt;/span&gt;&lt;font style=&quot;color: light-dark(rgb(103, 171, 159), rgb(255, 255, 255));&quot;&gt;&lt;span style=&quot;background-color: transparent;&quot;&gt;{ex: NS&lt;/span&gt;&lt;span style=&quot;background-color: transparent;&quot;&gt;}&lt;/span&gt;&lt;/font&gt;&lt;/div&gt;" style="text;strokeColor=none;fillColor=none;align=left;verticalAlign=middle;spacingLeft=4;spacingRight=4;overflow=hidden;points=[[0,0.5],[1,0.5]];portConstraint=eastwest;rotatable=0;whiteSpace=wrap;html=1;" vertex="1" parent="5FTgFw6TlE6LnQsB1mbU-1">
          <mxGeometry y="1230" width="483" height="30" as="geometry" />
        </mxCell>
        <mxCell id="1Ya_TMSbr1Y6pR6vE997-12" value="&lt;div&gt;&lt;font&gt;&lt;font style=&quot;color: rgb(153, 153, 153);&quot;&gt;(&lt;/font&gt;&lt;font style=&quot;color: rgb(153, 153, 153);&quot;&gt;/!\&lt;/font&gt;&lt;font style=&quot;color: rgb(153, 153, 153);&quot;&gt;&amp;nbsp;liste)&lt;/font&gt;&lt;/font&gt; competitor_chain_desc&amp;nbsp;&lt;span style=&quot;background-color: transparent;&quot;&gt;&lt;font style=&quot;color: light-dark(rgb(223, 24, 17), rgb(255, 255, 255));&quot;&gt;[]&lt;/font&gt;&lt;/span&gt;&lt;span style=&quot;background-color: transparent; color: light-dark(rgb(0, 0, 0), rgb(255, 255, 255));&quot;&gt; &lt;/span&gt;&lt;font style=&quot;color: light-dark(rgb(103, 171, 159), rgb(255, 255, 255));&quot;&gt;&lt;span style=&quot;background-color: transparent;&quot;&gt;{ex: INTERMARCHE / CORA / SUPER U ...&lt;/span&gt;&lt;span style=&quot;background-color: transparent;&quot;&gt;}&lt;/span&gt;&lt;/font&gt;&lt;/div&gt;" style="text;strokeColor=none;fillColor=none;align=left;verticalAlign=middle;spacingLeft=4;spacingRight=4;overflow=hidden;points=[[0,0.5],[1,0.5]];portConstraint=eastwest;rotatable=0;whiteSpace=wrap;html=1;" vertex="1" parent="5FTgFw6TlE6LnQsB1mbU-1">
          <mxGeometry y="1260" width="483" height="30" as="geometry" />
        </mxCell>
        <mxCell id="1Ya_TMSbr1Y6pR6vE997-27" value="&lt;div&gt;&lt;span style=&quot;background-color: transparent;&quot;&gt;&lt;font style=&quot;&quot;&gt;last_update_date&amp;nbsp;&lt;/font&gt;&lt;font style=&quot;color: light-dark(rgb(223, 24, 17), rgb(255, 255, 255));&quot;&gt;[dernière date (màj)]&lt;/font&gt;&lt;/span&gt;&lt;span style=&quot;background-color: transparent; color: light-dark(rgb(0, 0, 0), rgb(255, 255, 255));&quot;&gt; &lt;/span&gt;&lt;font style=&quot;&quot;&gt;&lt;span style=&quot;color: light-dark(rgb(103, 171, 159), rgb(255, 255, 255)); background-color: transparent;&quot;&gt;{ex:&amp;nbsp;&lt;/span&gt;&lt;span style=&quot;background-color: transparent;&quot;&gt;&lt;font color=&quot;#67ab9f&quot;&gt;2025-01-07 08:52:51 UTC&lt;/font&gt;&lt;font color=&quot;rgba(0, 0, 0, 0)&quot;&gt;}&lt;/font&gt;&lt;/span&gt;&lt;/font&gt;&lt;/div&gt;" style="text;strokeColor=none;fillColor=none;align=left;verticalAlign=middle;spacingLeft=4;spacingRight=4;overflow=hidden;points=[[0,0.5],[1,0.5]];portConstraint=eastwest;rotatable=0;whiteSpace=wrap;html=1;" vertex="1" parent="5FTgFw6TlE6LnQsB1mbU-1">
          <mxGeometry y="1290" width="483" height="30" as="geometry" />
        </mxCell>
        <mxCell id="1Ya_TMSbr1Y6pR6vE997-28" value="&lt;div&gt;&lt;span style=&quot;background-color: transparent;&quot;&gt;&lt;font style=&quot;&quot;&gt;last_update_source&amp;nbsp;&lt;/font&gt;&lt;font style=&quot;color: light-dark(rgb(223, 24, 17), rgb(255, 255, 255));&quot;&gt;[dernière source (màj)]&lt;/font&gt;&lt;/span&gt;&lt;span style=&quot;background-color: transparent; color: light-dark(rgb(0, 0, 0), rgb(255, 255, 255));&quot;&gt; &lt;/span&gt;&lt;font style=&quot;&quot;&gt;&lt;span style=&quot;color: light-dark(rgb(103, 171, 159), rgb(255, 255, 255)); background-color: transparent;&quot;&gt;{ex:&amp;nbsp;&lt;/span&gt;&lt;span style=&quot;background-color: transparent;&quot;&gt;&lt;font color=&quot;#67ab9f&quot;&gt;2025-01-07 08:52:51 UTC&lt;/font&gt;&lt;font color=&quot;rgba(0, 0, 0, 0)&quot;&gt;}&lt;/font&gt;&lt;/span&gt;&lt;/font&gt;&lt;/div&gt;" style="text;strokeColor=none;fillColor=none;align=left;verticalAlign=middle;spacingLeft=4;spacingRight=4;overflow=hidden;points=[[0,0.5],[1,0.5]];portConstraint=eastwest;rotatable=0;whiteSpace=wrap;html=1;" vertex="1" parent="5FTgFw6TlE6LnQsB1mbU-1">
          <mxGeometry y="1320" width="483" height="30" as="geometry" />
        </mxCell>
        <mxCell id="1Ya_TMSbr1Y6pR6vE997-29" value="&lt;div&gt;&lt;span style=&quot;background-color: transparent;&quot;&gt;&lt;font style=&quot;&quot;&gt;last_update_user&amp;nbsp;&lt;/font&gt;&lt;font style=&quot;color: light-dark(rgb(223, 24, 17), rgb(255, 255, 255));&quot;&gt;[dernier utilisateur (màj)]&lt;/font&gt;&lt;/span&gt;&lt;span style=&quot;background-color: transparent; color: light-dark(rgb(0, 0, 0), rgb(255, 255, 255));&quot;&gt; &lt;/span&gt;&lt;font style=&quot;&quot;&gt;&lt;span style=&quot;color: light-dark(rgb(103, 171, 159), rgb(255, 255, 255)); background-color: transparent;&quot;&gt;{ex:&amp;nbsp;&lt;/span&gt;&lt;span style=&quot;background-color: transparent;&quot;&gt;&lt;font color=&quot;#67ab9f&quot;&gt;jean_sebastien_chardon&lt;/font&gt;&lt;/span&gt;&lt;span style=&quot;background-color: transparent;&quot;&gt;&lt;font color=&quot;#67ab9f&quot;&gt;}&lt;/font&gt;&lt;/span&gt;&lt;/font&gt;&lt;/div&gt;" style="text;strokeColor=none;fillColor=none;align=left;verticalAlign=middle;spacingLeft=4;spacingRight=4;overflow=hidden;points=[[0,0.5],[1,0.5]];portConstraint=eastwest;rotatable=0;whiteSpace=wrap;html=1;" vertex="1" parent="5FTgFw6TlE6LnQsB1mbU-1">
          <mxGeometry y="1350" width="483" height="30" as="geometry" />
        </mxCell>
        <mxCell id="1Ya_TMSbr1Y6pR6vE997-30" value="&lt;div&gt;&lt;span style=&quot;background-color: transparent;&quot;&gt;sal_unit_qty_4w&lt;/span&gt;&lt;span style=&quot;background-color: transparent;&quot;&gt;&lt;font style=&quot;&quot;&gt;&amp;nbsp;&lt;/font&gt;&lt;font style=&quot;color: light-dark(rgb(223, 24, 17), rgb(255, 255, 255));&quot;&gt;[nb ventes - 4 dernières semaines]&lt;/font&gt;&lt;/span&gt;&lt;span style=&quot;background-color: transparent; color: light-dark(rgb(0, 0, 0), rgb(255, 255, 255));&quot;&gt; &lt;/span&gt;&lt;font style=&quot;&quot;&gt;&lt;span style=&quot;color: light-dark(rgb(103, 171, 159), rgb(255, 255, 255)); background-color: transparent;&quot;&gt;{ex:&amp;nbsp;&lt;/span&gt;&lt;span style=&quot;background-color: transparent;&quot;&gt;&lt;font color=&quot;#67ab9f&quot;&gt;}&lt;/font&gt;&lt;/span&gt;&lt;/font&gt;&lt;/div&gt;" style="text;strokeColor=none;fillColor=none;align=left;verticalAlign=middle;spacingLeft=4;spacingRight=4;overflow=hidden;points=[[0,0.5],[1,0.5]];portConstraint=eastwest;rotatable=0;whiteSpace=wrap;html=1;" vertex="1" parent="5FTgFw6TlE6LnQsB1mbU-1">
          <mxGeometry y="1380" width="483" height="30" as="geometry" />
        </mxCell>
        <mxCell id="1Ya_TMSbr1Y6pR6vE997-31" value="&lt;div&gt;&lt;span style=&quot;background-color: transparent;&quot;&gt;sal_unit_qty_52w&lt;/span&gt;&lt;span style=&quot;background-color: transparent;&quot;&gt;&lt;font style=&quot;&quot;&gt;&amp;nbsp;&lt;/font&gt;&lt;font style=&quot;color: light-dark(rgb(223, 24, 17), rgb(255, 255, 255));&quot;&gt;[nb ventes - 52 dernières semaines ]&lt;/font&gt;&lt;/span&gt;&lt;span style=&quot;background-color: transparent; color: light-dark(rgb(0, 0, 0), rgb(255, 255, 255));&quot;&gt; &lt;/span&gt;&lt;font style=&quot;&quot;&gt;&lt;span style=&quot;color: light-dark(rgb(103, 171, 159), rgb(255, 255, 255)); background-color: transparent;&quot;&gt;{ex:&amp;nbsp;&lt;/span&gt;&lt;span style=&quot;background-color: transparent;&quot;&gt;&lt;font color=&quot;#67ab9f&quot;&gt;}&lt;/font&gt;&lt;/span&gt;&lt;/font&gt;&lt;/div&gt;" style="text;strokeColor=none;fillColor=none;align=left;verticalAlign=middle;spacingLeft=4;spacingRight=4;overflow=hidden;points=[[0,0.5],[1,0.5]];portConstraint=eastwest;rotatable=0;whiteSpace=wrap;html=1;" vertex="1" parent="5FTgFw6TlE6LnQsB1mbU-1">
          <mxGeometry y="1410" width="483" height="30" as="geometry" />
        </mxCell>
        <mxCell id="1Ya_TMSbr1Y6pR6vE997-32" value="&lt;div&gt;sal_amt_wtax_4w&lt;span style=&quot;background-color: transparent; color: light-dark(rgb(0, 0, 0), rgb(255, 255, 255));&quot;&gt;&amp;nbsp;&lt;font style=&quot;color: light-dark(rgb(223, 24, 17), rgb(255, 255, 255));&quot;&gt;[CA TTC - 4 dernières semaines]&lt;/font&gt;&lt;/span&gt;&lt;span style=&quot;background-color: transparent; color: light-dark(rgb(0, 0, 0), rgb(255, 255, 255));&quot;&gt; &lt;/span&gt;&lt;font style=&quot;background-color: transparent;&quot;&gt;&lt;span style=&quot;color: light-dark(rgb(103, 171, 159), rgb(255, 255, 255)); background-color: transparent;&quot;&gt;{&lt;/span&gt;&lt;font style=&quot;color: rgb(103, 171, 159);&quot;&gt;&lt;span style=&quot;background-color: transparent;&quot;&gt;ex:&amp;nbsp;&lt;/span&gt;&lt;span style=&quot;background-color: transparent;&quot;&gt;&lt;font style=&quot;&quot;&gt;}&lt;/font&gt;&lt;/span&gt;&lt;/font&gt;&lt;/font&gt;&lt;/div&gt;" style="text;strokeColor=none;fillColor=none;align=left;verticalAlign=middle;spacingLeft=4;spacingRight=4;overflow=hidden;points=[[0,0.5],[1,0.5]];portConstraint=eastwest;rotatable=0;whiteSpace=wrap;html=1;" vertex="1" parent="5FTgFw6TlE6LnQsB1mbU-1">
          <mxGeometry y="1440" width="483" height="30" as="geometry" />
        </mxCell>
        <mxCell id="1Ya_TMSbr1Y6pR6vE997-33" value="&lt;div&gt;sal_amt_wtax_52w&lt;span style=&quot;background-color: transparent; color: light-dark(rgb(0, 0, 0), rgb(255, 255, 255));&quot;&gt;&amp;nbsp;&lt;font style=&quot;color: light-dark(rgb(223, 24, 17), rgb(255, 255, 255));&quot;&gt;[CA TTC - 52 dernières semaines]&lt;/font&gt;&lt;/span&gt;&lt;span style=&quot;background-color: transparent; color: light-dark(rgb(0, 0, 0), rgb(255, 255, 255));&quot;&gt; &lt;/span&gt;&lt;font style=&quot;background-color: transparent; color: light-dark(rgb(103, 171, 159), rgb(255, 255, 255));&quot;&gt;&lt;span style=&quot;background-color: transparent;&quot;&gt;{ex:&amp;nbsp;&lt;/span&gt;&lt;span style=&quot;background-color: transparent;&quot;&gt;&lt;font style=&quot;&quot;&gt;}&lt;/font&gt;&lt;/span&gt;&lt;/font&gt;&lt;/div&gt;" style="text;strokeColor=none;fillColor=none;align=left;verticalAlign=middle;spacingLeft=4;spacingRight=4;overflow=hidden;points=[[0,0.5],[1,0.5]];portConstraint=eastwest;rotatable=0;whiteSpace=wrap;html=1;" vertex="1" parent="5FTgFw6TlE6LnQsB1mbU-1">
          <mxGeometry y="1470" width="483" height="30" as="geometry" />
        </mxCell>
        <mxCell id="1Ya_TMSbr1Y6pR6vE997-34" value="&lt;div&gt;&lt;span style=&quot;background-color: transparent;&quot;&gt;&lt;font style=&quot;&quot;&gt;components_nbr&amp;nbsp;&lt;/font&gt;&lt;font style=&quot;color: light-dark(rgb(223, 24, 17), rgb(255, 255, 255));&quot;&gt;[BOM nb composants]&lt;/font&gt;&lt;/span&gt;&lt;span style=&quot;background-color: transparent; color: light-dark(rgb(0, 0, 0), rgb(255, 255, 255));&quot;&gt; &lt;/span&gt;&lt;font style=&quot;&quot;&gt;&lt;span style=&quot;color: light-dark(rgb(103, 171, 159), rgb(255, 255, 255)); background-color: transparent;&quot;&gt;{ex: 3&lt;/span&gt;&lt;span style=&quot;background-color: transparent;&quot;&gt;&lt;font color=&quot;#67ab9f&quot;&gt;}&lt;/font&gt;&lt;/span&gt;&lt;/font&gt;&lt;/div&gt;" style="text;strokeColor=none;fillColor=none;align=left;verticalAlign=middle;spacingLeft=4;spacingRight=4;overflow=hidden;points=[[0,0.5],[1,0.5]];portConstraint=eastwest;rotatable=0;whiteSpace=wrap;html=1;" vertex="1" parent="5FTgFw6TlE6LnQsB1mbU-1">
          <mxGeometry y="1500" width="483" height="30" as="geometry" />
        </mxCell>
        <mxCell id="1Ya_TMSbr1Y6pR6vE997-35" value="&lt;div&gt;&lt;span style=&quot;background-color: transparent;&quot;&gt;&lt;font style=&quot;color: rgb(153, 153, 153);&quot;&gt;(/!\ liste)&lt;/font&gt;&amp;nbsp;&lt;/span&gt;&lt;span style=&quot;background-color: transparent;&quot;&gt;&lt;font style=&quot;&quot;&gt;components_nbr&amp;nbsp;&lt;/font&gt;&lt;font style=&quot;color: light-dark(rgb(223, 24, 17), rgb(255, 255, 255));&quot;&gt;[EAN composants]&lt;/font&gt;&lt;/span&gt;&lt;span style=&quot;background-color: transparent; color: light-dark(rgb(0, 0, 0), rgb(255, 255, 255));&quot;&gt; &lt;/span&gt;&lt;font style=&quot;&quot;&gt;&lt;span style=&quot;color: light-dark(rgb(103, 171, 159), rgb(255, 255, 255)); background-color: transparent;&quot;&gt;{ex:&amp;nbsp;&amp;nbsp;&lt;/span&gt;&lt;span style=&quot;background-color: transparent;&quot;&gt;&lt;font color=&quot;#67ab9f&quot;&gt;}&lt;/font&gt;&lt;/span&gt;&lt;/font&gt;&lt;/div&gt;" style="text;strokeColor=none;fillColor=none;align=left;verticalAlign=middle;spacingLeft=4;spacingRight=4;overflow=hidden;points=[[0,0.5],[1,0.5]];portConstraint=eastwest;rotatable=0;whiteSpace=wrap;html=1;" vertex="1" parent="5FTgFw6TlE6LnQsB1mbU-1">
          <mxGeometry y="1530" width="483" height="30" as="geometry" />
        </mxCell>
        <mxCell id="RWJ3oSFgeC88UVad95b_-1" style="edgeStyle=orthogonalEdgeStyle;rounded=0;orthogonalLoop=1;jettySize=auto;html=1;exitX=0;exitY=0.5;exitDx=0;exitDy=0;entryX=1;entryY=0.5;entryDx=0;entryDy=0;endArrow=none;startFill=0;shape=link;" edge="1" parent="1" source="7NsR9cNIBfdw0ESPyUhh-4" target="H4yULS8eyxQX-8BWn6bs-2">
          <mxGeometry relative="1" as="geometry" />
        </mxCell>
        <mxCell id="8DDpotRE-3ZVymVaWvko-1" style="edgeStyle=orthogonalEdgeStyle;rounded=0;orthogonalLoop=1;jettySize=auto;html=1;exitX=1;exitY=0.5;exitDx=0;exitDy=0;entryX=0;entryY=0.5;entryDx=0;entryDy=0;shape=link;" edge="1" parent="1" source="7NsR9cNIBfdw0ESPyUhh-3" target="7NsR9cNIBfdw0ESPyUhh-17">
          <mxGeometry relative="1" as="geometry" />
        </mxCell>
      </root>
    </mxGraphModel>
  </diagram>
</mxfile>
